<?xml version='1.0' encoding='utf-8'?>
<svg xmlns="http://www.w3.org/2000/svg" version="1.1" id="Layer_1" x="0px" y="0px" viewBox="0 0 2597.04 1427.226" enable-background="new 0 0 2597.04 1427.226"> <g> <path d="M2569.277,1095.23c-0.547-2.681-0.278,0.378-22.169,0.874c-8.114,0.183-16.183,0.755-24.195,1.843l0.017,0.043 c-1.014-0.105-1.916-0.135-3.765,0.479c-3.747,1.243-12.046,0.743-12.522,0.893c-8.295,2.612-26.987,6.403-32.458-0.6 c-1.113-1.424-2.598-2.369-4.525-1.419c-4.346,2.144,5.703,8.716-9.169,11.821c-31.507,6.58-44.529,16.709-62.119,20.286 c-0.882,0.179-1.274,0.679-1.028,1.777c25.423,4.513,37.711-1.967,44.874-1.586c7.06,0.376,25.168-2.806,30.36-4.533 c3.714-1.236,10.321,1.328,5.974,8.841c-1.323,2.288-3.191,4.366-3.207,7.158c4.885,1.925,10.196,1.194,15.09,2.854 c2.376,0.806,4.716-0.444,5.266-2.396c2.817-9.994,9.412,4.34,22.177-7.203c1.452-1.313,3.982-1.687,3.3-3.379 c-0.936-2.317-2.414-1.363-14.854-4.191c-7.981-1.814-11.642-7.388-6.207-8.157 C2521.164,1115.659,2552.953,1106.334,2569.277,1095.23z"/> <path d="M18.52,563.945c6.108,2.139,12.368,3.907,17.86,7.527c0.596,0.393,1.644,0.79,2.143,0.531 c4.139-2.147,6.462,1.69,11.856,3.936c7.735,3.221,10.644-3.131,16.357-9.886c15.805-18.69,40.991-23.272,54.867-27.043 c3.482-0.946,6.589,3.423,3.665,6.283c-32.432,31.72-27.585,23.121-46.507,45.036c-3.425,3.967-3.238,4.851,0.992,8.352 c11.037,9.132,17.909,7.593,17.839,11.561c-0.104,5.883-19.658,15.395-31.176-1.775c-5.84-8.705-10.024-1.667-19.22-14.17 c-4.861-6.609-6.803-12.326-11.662-15.423c-5.771-3.678-10.411-9.031-17.014-11.47C18.52,566.251,18.52,565.098,18.52,563.945z"/> <path d="M583.862,665.279c-10.061,1.968-18.658,16.977-26.166,17.086c-2.764,0.04-4.564,2.479-6.018,4.452 c-1.062,1.441,2.336,6.914,4.537,7.673c3.734,1.288,6.51,4.023,9.72,6.093c1.837,1.184,2.925,3.087,3.312,5.229 c1.117,6.192,3.845,4.003,19.208,18.682c-1.495,1.838-2.464,0.802-3.389,0.344c-22.616-11.204-10.665-10.003-27.314-12.491 c-3.098-0.463-3.671,3.135,1.29,5.691c2.792,1.439,4.877,3.739,6.919,6.023c5.499,6.15-11.041,6.355-18.646,5.893 c-5.801-0.352-6.835-9.992-13.273-12.749c-7.354-3.15-6.334,0.417-19.081,7.937c-12.369,7.297-4.712,6.111-19.879,15.96 c-1.649,1.071-11.892,8.173-13.682,7.999c-3.193-0.311-5.314,0.892-7.246,3.529c-1.853,2.529-5.913,1.29-7.913-1.175 c-4.759-5.868,2.408-7.874,12.185-25.893c2.747-5.063,6.476-3.413,1.92-10.594c-1.081-1.704-5.304-8.272-7.559-8.399 c-4.812-0.272-9.062-2.977-13.925-2.919c-38.223,0.459-33.219-2.039-37.697-2.318c-4.025-0.25-8.484,1.473-11.88,0.28 c-6.103-2.144-23.074,0.127-22.874-4.703c0.052-1.257,1.187-1.547,2.081-1.398c4.885,0.815,21.787-3.319,27.342-5.506 c6.067-2.388,12.717-2.052,19.513-4.096c-13.955-17.204-0.783-16.388-27.726-17.619c4.811,4.257,8.938,9.368,15.974,9.727 c3.22,0.164,2.864,2.373,1.453,3.682c-6.635,6.15-16.091,5.279-19.749,6.324c-8.475,2.422-5.433-7.43-15.708-12.161 c-13.499-6.214-10.671-15.781-22.22-8.514c-11.478,7.222-10.967,5.372-27,9.889c-1.564,0.441-3.284,1.685-4.734-0.139 c-1.353-1.701-1.255-5.648,0.327-6.803c13.519-9.867,25.558-31.901,45.517-36.59c13.183-3.097,0.634-9.077,5.717-12.752 c2.315-1.674,4.426,0.418,6.659,1.672c18.371,10.317,27.12,6.786,42.697,6.131c3.39-0.142,5.495,4.029,2.528,6.637 c-2.153,1.893-3.918,4.221-6.336,5.84c-1.228,0.822-2.292,2.003-1.109,3.283c3.613,3.908,12.868,22.632,21.679,9.675 c3.174-4.667,6.796-9.193,12.837-10.497c2.552-0.551,24.697-7.068,33.764-2.28c1.633,0.862,4.285,1.334,5.378-0.281 c2.932-4.331,8.195-0.78,14.466-3.495c4.078-1.765,6.946,1.853,11.047-1.348c1.842-1.438,2.429-0.375,22.898-0.772 c7.493-0.145-1.229-6.016,2.129-8.967c1.872-1.645,6.833-1.743,9.117-0.031c13.001,9.746,21.885,0.988,27.529,0.964 c0.89-0.004,1.872-0.475,2.652-0.978c21.184-13.669,32.119-10.36,50.93-27.744c3.394-3.137,8.77,2.193,6.511,5.688 c-5.946,9.2-9.309,7.072-8.809,12.697c0.487,5.486-3.998,3.474-9.192,9.929c-11.547,14.348-28.183,16.351-33.621,20.012 c-3.745,2.521-3.896,5.103-0.199,7.545c3.619,2.391,6.378,5.774,10.492,7.71c4.187,1.97,4.033,4.366,0.601,7.71 C603.482,678.199,589.31,675.756,583.862,665.279z M519.637,645.997c-0.8,2.148,0.234,4.815-1.713,6.033 c-16.97,10.608-4.483-0.363-38.472,13.136c-1.107,0.44-2.743,0.515-2.403,2.438c9.717,1.59,19.471,1.034,29.201,1.113 c2.134,0.017,3.928-0.178,5.536-2.172c2.274-2.82,6.275-2.815,9.136-0.579c11.328,8.857,19.799-6.23,32.132-12.259 c-6.094-1.672-10.563-4.458-15.721-4.438C526.699,649.31,524.882,645.611,519.637,645.997z M492.944,680.349 c-6.317-2.472-10.329-7.369-16.558-7.767c-5.53-0.354-5.766-7.437-13.703,4.19C455.912,686.694,485.936,683.448,492.944,680.349z M501.994,699.543c-4.606-1.429-7.987,1.001-11.603,0.613c-5.527-0.591,0.16,7.276,1.749,5.37 C494.557,702.627,498.578,702.44,501.994,699.543z"/> <path d="M1661.455,514.755c3.672,5.501,6.002,11.78,10.255,17.052c3.185,3.948,6.022,8.245,7.083,13.997 c-9.129-2.307-20.453-25.02-32.79-21.131c-4.196,1.323-6.881-0.368-7.967,2.192c-1.336,3.147,2.736,3.665,3.697,5.7 c1.655,3.505,4.215,6.215,6.911,8.877c-7.176,5.42-14.596,3.565-22,1.564c-2.613-0.706-1.376-2.686-2.779-8.223 c-2.855-11.27-16.956-22.722-41.322,13.231c-0.792,1.169-1.192,3.784-3.691,1.869c-1.692-1.297-5.453-0.584-4.484-4.468 c3.233-12.953,4.146-25.105,13.261-36.28c9.442-11.578,16.821-6.445,21.28-5.319c6.367,1.609,0.905-5.715,6.349-6.516 c6.942-1.023,2.232,7.187,10.94,7.057c14.58-0.218,17.496-7.603,23.314-0.889c7.658,8.856,13.934,9.546,26.987,7.403 c21.85-3.588,24.113-4.898,28.881-4.252c4.459,0.604,8.75-0.47,13.087-1.314c2.646-0.515,3.24-1.978,2.368-4.084 c-3.462-8.363,3.111-10.402,8.073-4.858c4.236,4.733,9.553,3.208,14.494,2.473c4.007-0.596,7.199-3.496,10.552-5.725 c1.019-0.677,0.999-1.885,1.362-2.963c3.427-10.159,10.119-17.994,18.901-23.722c8.166-5.325,19.725,1.391,21.911,2.357 c9.49,4.198,5.066-7.532,10.45-7.722c8.739-0.307,3.701,17.767,16.633,3.39c10.517-11.691,31.166-3.697,42.286,8.715 c4.295,4.793,8.415,3.005,15.211,14.275c0.99,1.641,2.007,3.759-1.478,3.953c-2.291,0.128-2.339,3.34-4.999,3.368 c-8.744,0.092-9.69-6.557-30.447-11.023c-6.288-1.353-11.026,2.109-16.046,4.725c-1.102,0.574-1.036,1.984-0.932,3.15 c1.239,13.892,3.31,12.677,6.991,18.356c3.419,5.277-9.443,6.4-14.344,5.499c-3.724-0.685-7.294-2.027-11.123-2.353 c-5.263-0.448-1.757-9.396-1.491-10.409c0.745-2.847-3.347-9.322-6.092-9.879c-1.134-0.23-1.692,0.668-2.418,1.233 c-10.756,8.373-27.758,20.989-41.634,23.177c-3.274,0.517-3.858,2.26-1.421,4.641c14.24,13.915,15.875,10.456,11.862,15.544 c-2.863,3.63-6.241,4.943-10.91,4.787c-10.631-0.357-10.687-0.1-15.246-9.584c-2.161-4.495-5.824-9.578-10.342-7.859 c-1.852,0.705-3.837,0.349-5.66,0.764c-4.955,1.128-9.826,0.089-14.696-0.288c-3.836-0.297-7.725,0.339-11.374-0.048 C1677.673,522.945,1665.625,511.734,1661.455,514.755z"/> <path d="M853.018,322.981c-2.687-0.817-4.27-3.1-6.414-4.488c-4.81-3.114-9.709-6.097-12.733-11.291 c-2.724-4.679-3.94-1.314-14.041-7.251c-4.974-2.924-7.574,2.066-4.116,5.51c4.801,4.783,11.817,12.341,4.964,12.672 c-8.738,0.422-20.391,4.476-20.651-3.355c-0.087-2.632-1.235-5.138-1.474-7.858c-1.084-12.305-12.966-1.982-28.597,2.529 c-0.905,0.261-1.991,0.597-2.544,1.268c-3.659,4.44-8.742,6.655-13.64,9.27c-5.19,2.77-3.005,2.456,0.425,8.472 c-8.57,3.795-5.605,12.817-31.534,18.837c-4.007,0.93-8.07,2.158-12.434,0.969c-2.14-0.583-2.448,1.281-1.497,2.962 c1.718,3.036,4.324,5.356,6.599,7.941c1.434,1.629,4.454,1.034,5.265,3.121c0.781,2.012,2.023,3.427,4.309,4.722 c-3.588,2.032-6.239,4.385-10.024,2.356c-0.848-0.455-2.33-0.713-2.71-0.047c-1.815,3.17-4.705,1.861-7.195,1.938 c-5.042,0.155-6.013-0.484-7.514-5.1c-3.057-9.401-9.253-14.503-18.73-12.966c-4.981,0.808-22.146,2.566-22.146,2.566 c-9.772,4.872-22.213-2.713-26.348-1.036c-0.447,0.181-1.256,0.051-1.631-0.258c-5.112-4.22-10.856-2.331-16.436-1.698 c-5.214,0.592-6.457-1.77-6.284-3.016c0.318-2.294,2.873-0.463,7.838-2.029c8.71-2.746,17.79-4.302,25.872-9.01 c6.024-3.51,14.037-1.919,10.776-6.541c-22.742-32.231-31.264-16.507-25.269-13.802c3.892,1.757,6.14,5.808,10.329,7.115 c2.813,0.878,3.802,4.4-0.348,6.23c-7.607,3.356-11.283,0.721-20.313,0.2c-6.536-0.378-2.541-9.198-17.112-14.125 c-4.484-1.516-5.77-1.26-8.91,2.56c-6.207,7.551-12.427,15.09-17.735,23.333c-5.174,8.037-15.761,7.916-15.364,2.472 c0.223-3.066,0.581-6.113-1.159-8.909c2.233-6.331-0.651-13.455,3.02-19.547c0.631-1.047,0.683-2.162,0.9-3.283 c1.039-5.357,3.541-10.066,6.275-14.731c5.765-9.835,16.599-1.27,16.081-7.248c-0.228-2.635-0.166-5.115,2.869-6.131 c2.688-0.9,4.036,1.309,5.909,2.559c18.194,12.136,20.041-4.021,30.768,2.982c16.101,10.512,31.554,33.964,34.726,40.522 c1.335,2.76,1.875,2.706,13.063-0.101c4.671-1.172,1.037-4.844,0.399-6.281c-2.837-6.387,5.915-5.589,11.075-1.183 c6.91,5.901,18.266,1.563,26.099,1.74c4.765,0.107,9.442-0.072,14.171,1.555c4.202,1.445,7.805,0.779,11.372-3.644 c35.18-43.618,35.057-40.302,52.116-43.109c2.769-0.456,4.35-1.569,4.452-4.821c0.255-8.117,9.154-6.53,10.222-0.917 c0.299,1.573,1.336,2.264,2.832,2.337c7.022,0.342,13.166,3.895,19.866,5.436c7.321,1.684,26.448,29.141,30.855,35.264 C852.392,319.791,853.874,320.764,853.018,322.981z"/> <path d="M965.831,707.246c-2.477-3.303-4.427-4.707-7.714-4.788c-5.646-0.138-10.721,0.522-15.838,3.537 c-11.383,6.707-20.109,9.023-25.703,13.599c-3.434,2.809-0.376-5.428-6.213-0.675c-1.431,1.165-2.145,1.501-3.342-0.654 c-1.138-2.049-2.726,1.536-4.475,0.593c-0.86-1.239,0.127-2.16,0.705-3.063c6.99-10.916,15.391-20.483,25.74-28.444 c6.741-5.186,13.544-6.82,21.415-3.377c7.584,3.317,0.566-3.584,7.378-5.895c4.547-1.543,6.683,6.949,10.861,7.19 c10.026,0.58,15.544-3.997,17.327-4.995c8.528-4.775,24.097,4.363,29.644,8.452c2.573,1.897,5.094,1.995,15.22-2.406 c3.108-1.351,3.587-4.973,0.766-6.765c-15.65-9.938-9.306-21.121-28.647-8.751c-1.745,1.116-2.959,1.051-4.386-0.69 c-2.096-2.559-3.834-5.311-5.033-8.335c-2.234-5.631,6.599-22.194,16.309-15.677c7.162,4.806,8.904-3.898,12.909,1.745 c0.431,0.608,1.07,1.114,1.705,1.525c8.78,5.682,9.886,4.421,13.828-2.079c4.963-8.182,11.098-12.818,20.448-12.679 c53.123,0.786,46.402,15.793,37.581,16.644c-13.7,1.321-30.205,2.425-41.435,11.278c-3.443,2.715-8.227,7.619-5.315,11.128 c2.36,2.844,4.764,5.557,8.93,5.441c1.126-0.031,2.67-0.288,3.036,0.997c1.565,5.499,9.632,5.342,5.336,9.433 c-3.754,3.575-11.836,2.644-19.405,10.107c-2.314,2.282-5.462,3.284-8.21,4.752c0.172,2.329,2.526,3.055,3.122,5.498 c-2.535,0.532-4.622,2.672-7.669,0.995c-3.531-1.944-6.015,4.694-19.778,23.383c-1.271,1.726-0.75,3.134,1.543,3.858 c5.478,1.729,10.287,5.027,15.811,6.746c3.277,1.02,3.349,2.315,1.08,4.851c-6.433,7.19-14.922,7.844-23.723,7.51 c-4.828-0.183-5.521-11.194-12.199-13.543c-15.135-5.322-14.493-17.457-21.84-19.193c-9.133-2.158-32.427-7.705-29.326-16.655 C947.943,703.026,962.045,707.165,965.831,707.246z M1003.614,698.935c-4-0.254-15.59,1.22-14.913,5.226 c0.417,2.465,9.227,8.8,11.453,6.715C1003.892,707.378,1008.195,699.225,1003.614,698.935z"/> <path d="M1023.29,1268.223c2.041-1.836-0.86-5.165,3.274-7.185c4.787-2.339,8.69,13.875,19.108-0.053 c4.587-6.132,6.127-11.469,14.1-13.411c5.542-1.35,10.806-3.683,16.723-3.463c6.993,0.261,2.889-14.805-8.771-13.736 c-21.059,1.929-12.022,20.572-25.949,29.351c-2.861-3.535-6.391-20.789-1.47-35.918c7.815-24.025,26.253-0.661,22.941-15.672 c-0.511-2.314,2.069-3.644,1.749-6.417c-5.232,2.482-8.096-0.356-9.899-4.723c-3.396-8.225-11.217-0.075-17.685-6.48 c-5.823-5.766-9.291-12.824-11.361-20.635c-1.439-5.429-6.59-0.817-17.935-8.037c-2.216-1.41-13.727,0.836-12.898-9.178 c0.248-2.999,9.147-4.71,16.959-2.626c4.718,1.259,8.393,4.954,12.66,6.401c4.426,1.501,8.484,2.859,11.706,6.223 c3.848,4.016,9.473-1.559,11.71-7.058c5.12-12.582,19.374-13.442,33.627-15.246c11.123-1.408,11.118-4.515,24.202,1.953 c1.25,0.618,0.57,2.612-0.633,2.393c-3.363-0.611-5.041,1.891-7.344,3.535c-1,0.714-53.873,25.102-40.913,39.775 c3.297,3.733,6.301,7.699,10.784,10.196c5.557,3.094-1.816,3.214,0.736,6.207c2.358,2.767,4.471,5.52,8.927,5.177 c5.686-0.438,11.624,0.746,16.309-3.84c5.828-5.707,38.895,30.18,38.489,38.703c-2.09,0.181-0.514,0.273-20.101-14.77 c-5.229-4.016-10.765-4.425-16.776-2.569c-8.214,2.537,13.3,15.643,14.406,17.51c-0.766,1.421-3.068,1.556-1.954,4.437 c1.335,3.453-0.163,5.257-3.782,6.095c-3.896,0.901-7.752,2.3-11.874,1.854c-5.825-0.63-46.664,21.6-28.671,33.153 c7.484,4.806,18.636,8.479,8.244,13.19c-29.682,13.455-15.026-5.068-32.24-10.908c-7.477-2.537-6.85-10.425-13.746-8.833 c-6.725,1.552-12.418-1.189-17.158,4.479c-5.332,6.375-12.32,0.459-12.508-5.382c-0.331-10.302,6.456-21.892,20.993-16.763 C1019.24,1266.645,1020.954,1268.023,1023.29,1268.223z"/> <path d="M1367.902,812.505c-1.406,1.629-2.485,2.93-20.281,3.56c-5.969,0.211-6.996-3.303-7.762-9.225 c-0.83-6.424-6.159-8.809-10.724-11.815c-1.1-0.724-2.632-0.604-3.944-0.246c-10.375,2.83-26.831-0.127-30.269-0.068 c-5.954,0.101-11.859,0.035-17.638-1.728c-5.291-1.615-7.834,1.073-10.753-0.023c-6.505-2.442-13.511-3.435-20.897-6.65 c2.664-1.142,4.386-1.001,5.97-0.823c13.895,1.555,24.598-4.786,45.679-8.105c4.918-0.774,12.707-0.277,19.456-1.428 c8.014-1.367-1.626-6.217,1.51-10.153c2.144-2.692,3.276-3.109,6.272-1.228c9.009,5.656,5.67,14.606,40.181-0.174 c3.508-1.502,0.53-10.954-0.972-14.466c-2.525-5.905-15.587-6.176-18.276,3.998c-0.772,2.92-0.647,6.272-5.018,6.398 c-1.715,0.049,0.264,4.427-0.513,5.891c-5.999-0.027-6.062-0.005-7.875-5.133c-2.591-7.331-3.998-14.741-1.341-22.423 c4.701-13.591,16.969-6.789,20.839-9.348c1.559-1.031,0.476-2.859,0.91-4.282c3.247-10.648,6.565,6.549,18.674-3 c3.838-3.026,9.89-7.991,17.62-6.595c15.531,2.805,34.902,15.609,37.473,18.17c-0.439,1.767-2.809,2.038-1.938,5.15 c-4.595-3.965-8.781-4.071-13.322-3.787c-14.331,0.895-19.615-6.927-32.772,5.894c-3.804,3.707,5.173,14.474,8.726,18.423 c3.888,4.321,24.778-3.879,31.173-8.291c-0.632,3.203-0.632,3.203,3.563,4.668c-3.651,4.372-11.566,10.71-11.884,10.776 c-8.457,1.751-14.244,8.322-21.652,12.013c-32.761,16.323-40.601,6.011-33.584,18.836c2.453,4.484,6.4,7.533,9.851,11.073 C1365.577,809.584,1367.076,810.539,1367.902,812.505z"/> <path d="M2361.81,962.497c-3.229,3.923-6.126,7.443-9.793,11.899c6.45,0.054,12.242-0.774,17.603,0.386 c5.752,1.245,11.181-3.303,16.872-0.244c-8.435,8.846-25.684,10.415-50.364,27.444c-3.505,2.419-2.24,4.985,1.193,5.147 c4.405,0.207,8.288,2.391,13.21,2.806c-2.479,4.153-2.701,8.872-6.847,11.371c-6.3,3.797-12.819,6.895-20.471,6.455 c-8.542-0.492,5.179-16.037-12.573-16.176c-16.038-0.126-11.164,3.232-3.649,10.317c5.479,5.166-11.332,6.255-19.534,4.703 c-1.494-0.283-1.936-1.487-2.418-2.857c-2.019-5.732-2.036-5.358-8.407-4.426c-1.039,0.152-20.277,4.067-23.427,6.815 c-1.456,1.271-3.02,1.147-4.058-0.116c-2.232-2.714,14.561-11.37,12.572-14.576c-0.903-1.456-1.173-0.843-17.359-2.024 c-1.771-0.129-3.42,0.062-5.019,0.893c-0.829,0.431-1.938,1.113-2.641,0.871c-4.245-1.462-8.651,0.799-12.878-0.766 c-1.009-0.374-16.288-6.011-17.815-5.478c-4.356,1.521-6.521-1.718-10.006-4.08c64.439-11.407,49.655-6.619,64.792-6.941 c9.007-0.191,3.218-7.053,7.553-9.047c1.641-0.755,3.018-0.013,4.042,1.273c4.515,5.666,10.016,3.48,15.162,1.594 c13.2-4.839,6.857-7.912,46.71-19.733c6.436-1.909,12.866-3.836,19.288-5.792C2356.102,961.433,2358.625,960.361,2361.81,962.497z"/> <path d="M1070.367,1018.876c-4.261-2.997-7.901-0.102-11.51,1.012c-2.912,0.899-3.327,3.739-1.507,6.521 c2.78,4.249,2.687,4.995-1.654,7.251c-4.147,2.155-8.462,3.532-13.258,2.081c-5.148-1.559-11.909,1.594-10.812,4.228 c0.444,1.067,1.418,1.342,2.381,0.993c3.844-1.395,7.497-0.798,11.135,0.767c2.178,0.937,9.622-1.798,7.962,5.177 c-2.336,9.815-10.321,16.936-20.861,19.016c-2.262,0.447-3.17-0.595-3.971-2.276c-15.595-32.741-4.922,1.649-86.545,9.729 c-2.725,0.27-4.347-1.272-2.117-4.202c1.226-1.611,3.208-2.033,4.939-2.808c35.874-16.062,39.267-36.587,50.265-54.687 c6.609-10.877,19.294-5.295,15.754-13.75c-0.858-2.049-3.341-4.123-1.408-6.203c1.64-1.765,3.864-1.019,5.315-0.035 c3.471,2.353,7.504,2.84,11.291,4.133c8.766,2.992,11.193-3.485,19.391,2.397c9.012,6.466,12.808,10.958,22.22,5.174 c7.148-4.393,7.609-5.077,8.952-3.812c3.306,3.112-3.577,8.168-5.434,9.872C1066.685,1013.317,1066.656,1014.339,1070.367,1018.876 z"/> <path d="M1835.653,779.454c-6.098,0.629-6.995,0.849-19.964-4.509c-8.648-3.573,3.112-6.42-4.045-13.937 c-5.184-5.445-0.439-9.578-6.951-11.617c-7.502-2.348-8.634-6.164-11.284-3.255c-1.93,2.119-4.427,2.216-6.917,1.93 c-6.527-0.752-15.361,2.01-19.97-5.304c5.911-8.401,23.201-18.898,33.114-10.51c11.269,9.536,12.212,11.965,14.599,8.179 c2.079-3.298,5.109-4.726,7.622-1.091c0.981,1.418,1.394,5.865,4.333,3.216c13.129-11.835,13.94-12.299,12.056-14.422 c-11.937-13.446-6.715-1.206-56.393-29.484c4.051-1.467,7.292-0.161,10.697,0.566c5.528,1.181,15.906,1.351,31.361,5.757 c8.673,2.473,1.897-10.491,9.989-4.979c3.256,2.217,7.822,9.409,20.622,4.701c23.919-8.797,44.777-12.875,56.739-16.92 c1.573-0.532,3.196-1.388,4.932-0.053c-0.653,3.576-13.063,17.009-25.651,21.829c-9.168,3.511-13.972,8.452-32.137,13.121 c-6.031,1.55-2.337,9.841,2.982,11.758c7.483,2.698,22.151,11.844,17.93,18.547c-2.979,4.729-20.116-0.257-25.574-1.5 c-2.359-0.537-3.601-4.823-5.308-3.64c-4.337,3.006-10.09,3.739-13.348,8.503C1828.268,766.306,1829.62,765.749,1835.653,779.454z"/> <path d="M1500.013,1098.728c-22.15,4.291-42.517,13.536-63.385,20.462c-0.132,2.647,1.454,2.956,2.561,3.42 c7.923,3.318,15.78,4.995,24.48,1.98c8.121-2.814,16.786-4.051,24.04-9.169c1.118-0.789,2.641-1.059,3.711,0.094 c5.306,5.721-27.973,26.36-31.333,26.494c-3.193,0.128-5.876,1.656-8.641,2.955c-10.742,5.046,9.654,10.649,9.41,13.893 c-0.105,1.397-1.375,1.922-2.406,2.097c-2.677,0.452-5.089,1.655-7.638,2.37c-10.69,2.998-14.551-15.583-38.13-16.785 c-1.719-0.088-25.89-5.342-26.931-8.197c5.686-1.193,11.064-2.873,17.213-1.737c4.261,0.788,8.999-1.147,13.422,0.899 c2.188,1.012,2.012-1.369,2.518-7.975c0.102-1.333-6.32-7.103-15.899-6.84c-33.738,0.926-52.164,4.599-53.39-0.422 c-0.383-1.567,0.719-2.106,1.699-2.578c12.34-5.945,22.623-9.828,22.623-9.828c19.109-9.25,29.6,3.254,32.455-5.367 c2.653-8.009,9.377,6.186,22.191-3.361c16.975-12.646,39.483-2.653,65.679-5.951 C1496.802,1094.861,1498.771,1095.429,1500.013,1098.728z"/> <path d="M2254.954,517.815c0.135,4.483-3.94,4.107-11.997,11.888c-6.556,6.331-3.355,6.57-7.761,8.622 c-1.003,0.467-31.421,15.347-33.608,15.301c-1.001-0.021-25.639,3.305-15.215,10.329c4.162,2.804,3.977,7.866,8.006,10.192 c9.302,5.371-26.771,12.712-30.583,11.634c-4.393-1.242-5.052-1.796-3.648-6.251c2.692-8.536,5.032-5.731,1.428-18.03 c-8.191,4.771-48.478,8.121-50.744,6.904c-7.637-4.101-16.411-2.472-24.353-4.846c-4.543-1.358-9.661,0.185-13.798-2.947 c-0.433-0.328-1.174-0.255-1.597-0.589c-1.883-1.487-0.688-3.364,0.957-2.595c2.027,0.948,4.183,0.341,6.241,0.66 c3.811,0.59,7.037-2.706,11.208-1.052c4.269,1.693,25.871-5.976,30.341-7.501c20.521-6.999,27.471-4.675,37.012-9.635 c8.357-4.345-0.479-6.946,4.729-12.065c3.593-3.532,7.917,0.822,9.403,3.675c3.464,6.651,7.858,4.985,29.003-0.807 c13.516-3.703,8.822,1.159,28.535-4.225c8.092-2.21,16.434-3.846,23.674-8.51C2252.894,517.51,2253.916,517.084,2254.954,517.815z"/> <path d="M2576.15,374.731c-6.191,3.988-13.323,5.387-20.242,7.276c-19.543,5.337-13.629-0.332-22.947,3.237 c-7.223,1.763-17.327,10.972-29.504,10.251c-7.162-0.425-7.001-10.821-11.215-2.652c-0.836,1.622-0.29,5.801-7.509,7.358 c-10.034,2.164-12.75-3.416-18.894-7.994c-7.894-5.88-13.897-1.837-21.319-0.41c-13.033,2.507-9.425-9.266-15.356-8.968 c-5.849,0.294-4.5,15.262-18.662,11.224c-12.677-3.614-20.776,3.621-37.918,37.654c-2.563,5.09-5.173,10.228-5.675,15.949 c0.92,0.891,1.533-0.131,2.156-0.046c4.027,0.545,4.021,0.578,6.319-2.008c14.504-16.316,20.449-24.989,32.915-27.538 c4.053-0.829,8.051,0.141,12.041-0.321c9.724-1.127-0.341,17.688,5.419,20.134c4.616,1.96,9.411,3.342,14.464,1.691 c3.988-1.303,4.296-1.819,4.346-6.244c0.093-8.344-1.792-9.741-0.356-14.294c1.333-4.226,3.598-0.938,13.967-0.094 c8.863,0.721,18.902-1.344,29.779,9.754c3.788,3.865-4.821,9.83,1.113,10.542c6.59,0.79,13.113,5.285,19.817,0.328 c0.418-0.31,1.208-0.513,1.648-0.334c3.601,1.464,6.7-0.651,9.878-1.504c4.923-1.322,8.62-4.569,11.857-9.18 c-8.314-4.394-22.245-10.953-18.536-14.115c10.433-8.895,11.215,1.138,26.406-12.294c5.999-2.923,23.116-9.266,24.307-12.62 c1.08-3.041,7.417-8.034,10.083-9.861c1.626-1.114,4.067-2.296,3.984-5.049C2577.631,373.976,2576.756,374.341,2576.15,374.731z"/> <path d="M2203.433,640.76c6.041,2.917,11.304,6.367,16.732,9.522c1.615,0.938,2.545,2.59,0.856,3.598 c-8.462,5.052-6.045,11.856-36.015,11.512c-4.952-0.057-0.714-6.601-0.661-15.649c0.024-4.094-3.558-7.299-6.903-5.566 c-7.722,4.001-14.898,1.413-16.187,6.765c-0.205,0.851-0.959,2.105-1.631,2.224c-4.964,0.881-6.491,5.636-9.533,8.549 c-3.098,2.968-6.562,5.81-8.712,9.717c-0.919,1.669-1.716,3.524-4.182,1.66c-1.65-1.248-3.092,3.51-4.633,0.555 c-0.789-1.511-0.014-3.771-0.227-5.661c-1.312-11.673,7.592-30.983,15.267-39.912c11.621-13.517,28.038,4.536,26.926-9.86 c-0.372-4.816,0.254-6.497,2.219-7.103c11.113-3.428,8.751,15.681,23.962,1.093c1.284-1.232,2.787-2.375,4.506-2.298 c8.819,0.392,17.908-1.8,26.266,3.188c19.203,11.462,3.808,4.444,20.609,12.563c3.829,1.851,7.113,4.473,10.543,6.89 c0.807,0.569,2.293,1.602,1.035,2.656c-1.124,0.942-1.109,3.406-3.704,2.671c-9.353-2.65-19.257-2.312-28.599-5.344 c-3.337-1.083-7.044-0.777-10.701,0.532C2214.762,635.177,2209.24,638.053,2203.433,640.76z"/> <path d="M1936.412,473.27c-2.788,8.437-4.99,16.77-10.382,23.598c-3.411,4.321-6.361,9.425-10.708,12.493 c-9.023,6.37-9.018,9.627-25.694,21.183c-4.315,2.99-0.232,7.393,0.768,7.985c4.782,2.831,6.884,8.776,12.628,10.585 c1.899,0.598,1.159,2.717,0.391,3.995c-8.749,14.552-23.094,10.338-28.505,10.507c-1.527,0.048-1.873-1.173-1.816-2.382 c0.194-4.082-1.229-7.921-1.695-11.901c-1.644-14.035-13.485-7.049-27.085-10.702c-10.385-2.789-10.121,1.368-28.506-5.919 c-13.508-5.355-19.294-6.545-33.412-16.052c1.347-0.949,2.743-0.336,3.631,0.279c7.241,5.009,13.42,1.149,20.446,2.672 c8.054,1.745,1.894-1.013,18.762-0.742c8.793,0.141,17.542-1.088,26.378-0.345c5.84,0.491,5.917-0.036,5.983-6.205 c0.029-2.784-0.519-5.27,1.941-6.06c11.716-3.765,2.998,18.58,29.911-6.433c6.517-6.057,13.008-7.868,29.166-18.055 C1924.257,478.21,1931.315,478.012,1936.412,473.27z"/> <path d="M933.185,299.228c2.643-2.039,2.28,0.585,26.416,3.164c8.658,0.925,17.138,3.566,25.676,5.543 c4.288,0.993,4.269,1.075,5.595-2.902c5.064-15.187,11.011,7.234,21.309,3.256c28.566-11.035,50.047-15.547,69.994-22.108 c3.386-1.114,12.791-8.328,15.524-6.358c-1.601,4.636-8.286,3.885-7.855,8.01c1.492,14.292-45.104,39.625-52.281,36.625 c-0.324-0.135-1.123,0.334-1.412,0.733c-2.186,3.012-5.732,2.878-8.773,3.675c-7.042,1.845-7.086,2.147-2.892,8.146 c3.423,4.895,7.435,9.696,13.217,12.833c-9.982,10.317-20.273,4.914-25.009,4.284c-13.731-1.828,0.125-12.41-15.22-21.512 c-16.984-10.074-37.723-11.318-54.194-22.326C937.479,306.411,934.862,303.951,933.185,299.228z"/> <path d="M646.708,620.946c12.018,1.006,25.309,1.104,37.272-2.779c19.141-6.213,6.792,0.424,33.755-7.872 c2.282-0.702,4.966,0.129,6.827-2.349c1.284-1.709,2.138-2.818,0.632-4.937c-1.792-2.522-1.315-4.889,0.767-6.827 c5.881-5.475,8.256,10.61,23.974,6.516c16.989-4.426,20.347-4.404,23.12-6.391c1.746-1.252,3.813-1.926,5.873-2.156 c25.933-2.894,32.391-15.868,36.757-10.559c2.333,2.837,2.254,5.692-0.09,8.752c-18.37,23.985-42.657,27.598-55.937,30.732 c-0.527,10.197,26.139,12.661,15.94,18.942c-7.849,4.835-15.774,9.613-25.744,6.38c-3.509-1.137-10.945,1.069-9.482-4.85 c7.757-31.39-28.652,2.87-71.234-17.286C657.587,620.795,655.57,626.32,646.708,620.946z"/> <path d="M142.034,1159.804c-21.925,9.651-18.797-1.908-28.657-2.602c-3.973-0.28-8.787-6.116-20.796-3.35 c-65.462,15.081-19.684,7.085-2.503,30.09c2.779,3.72,7.198,5.551,11.612,7.818c-2.015,2.797-4.42,5.148-3.816,8.538 c-2.239,0.715-3.725-0.092-5.146-1.111c-3.718-2.664-8.108-4.279-11.429-7.612c-1.305-1.31-3.256-1.958-4.853-2.999 c-4.556-2.968-8.817-2.462-13.358,0.369c-3.409,2.125-6.731,4.191-9.497,7.17c-7.109,7.657-16.041,13.048-24.302,19.275 c-2.276,1.716-4.417,1.845-6.848,0.169c0.075-0.277,9.76-20.466,12.586-28.876c2.503-7.447,6.501-8.272,14.098-12.356 c5.483-2.947,1.758-9.549-2.578-9.653c-6.776-0.161-11.387,4.484-14.838,3.209c-0.13-2.467,1.693-3.388,3.148-4.564 c24.284-19.628,42.25-21.806,50.844-27.488c-0.403-5.027-5.744-4.686-2.132-8.65c1.357-1.49,2.741-2.145,4.405-0.554 c8.11,7.756,20.084,2.114,34.721,1.72c15.191-0.409,28.216,2.619,40.097-1.437c1-0.341,3.692-0.444,3.92,1.046 c0.434,2.841-19.89,8.129-31.203,13.159c-3.965,1.763-8.274,1.313-12.206,2.863C113.025,1148.029,139.948,1157.75,142.034,1159.804 z"/> <path d="M1438.499,1410.022c-11.256,5.335-19.227-4.95-21.997-7.735c-4.273-4.296-2.883-5.682-23.296,10.658 c-2.109,1.688-4.254,2.369-6.868,2.2c-3.788-0.246-7.622,0.365-11.557-0.463c0.229-1.445,0.429-2.705,0.58-3.657 c-0.517-0.993-1.215-0.977-1.676-0.786c-10.389,4.289-9.565,5.818-18.205,4.439c1.156-2.355,3.066-3.402,4.453-4.874 c16.844-17.87,20.683-22.942,30.61-26.48c4.222-1.505,8.033-3.815,8.176-9.201c0.029-1.078,0.888-1.709,1.913-1.817 c5.69-0.597,10.34-3.901,15.519-5.809c2.353-0.867,3.164-1.694,2.172-4.085c-1.881-4.533-0.868-12.591,5.474-8.742 c1,0.607,8.332,7.415,18.082,7.979c21.711,1.255,25.708,17.448,43.238,30.881c0.445,0.341,0.9,0.737,0.544,1.927 c-9.819-3.037-10.018-8.938-30.698-12.847c-1.028-0.194-2.353-1.003-3.018,0.442c-0.621,1.351,0.775,1.984,1.463,2.823 c11.006,13.431,19.279,12.082,13.603,16.439c-3.934,3.02,5.92,3.318,8.833,8.862c-4.089-0.11-7.46-1.583-10.607-3.103 c-6.965-3.364-25.163,3.726-26.338-7.937c-0.722-7.157-19.037-10.058-5.796,3.448 C1434.087,1403.585,1437.738,1407.282,1438.499,1410.022z"/> <path d="M1045.096,1383.647c-0.044,2.136,2.49,2.234,2.285,4.404c-3.402,1.975-7.25-3.92-13.54,1.405 c-8.547,7.234-7.805-4.627-10.386-6.118c-15.688-9.058-17.08-14.313-27.3-11.676c-2.361,0.609-7.896-3.096-8.439-5.433 c-0.179-0.771,0.476-0.873,0.734-1.295c3.972-6.485,5.428-11.568,13.539-8.478c11.58,4.41,18.452,10.043,25.533,1.593 c8.128-9.699,23.876-7.255,36.008-3.641c7.472,2.226,5.207-1.716,25.012-11.753c17.998-9.122,16.542-7.315,31.495-17.73 c2.781-1.937,5.485,1.154,2.273,3.842c-8.083,6.765-14.778,21.405-25.791,28.158c-1.502,0.921-2.715,2.116-3.851,3.426 c-16.329,18.828-23.34,17.255-18.163,23.877c4.436,5.673,5.947,4.319,13.296,8.735c2.821,1.695,2.912,4.442-0.084,5.554 c-2.928,1.086-5.142,2.733-7.586,4.561c-3.327,2.488-7.788,1.036-11.748,0.848c-2.517-0.12-3.1-2.624-3.916-4.502 c-4.729-10.888-10.222-7.851-14.677-13.822C1048.679,1384.111,1047.347,1383.254,1045.096,1383.647z"/> <path d="M846.09,785.855c-6.964-3.566-23.021-12.546-18.149-4.119c0.732,1.266,2.087,1.652,3.277,2.233 c2.789,1.363,5.223,3.233,7.544,5.246c4.577,3.969-10.418,5.891-16.499,5.585c-11.224-0.564-6.213-16.105-14.883-12.438 c-6.528,2.76-13.157,5.587-18.145,10.842c-10.892,11.476-37.315,27.37-43.594,30.432c-5.698,2.779,0.761,11.947,5.373,16.22 c1.187,1.099,3.398,2.242,2.494,4.084c-1.058,2.156-3.496,3.291-5.893,2.462c-5.935-2.053-12.021-4.047-15.418-10.035 c-0.768-1.354-1.438-3.082-2.981-3.328c-7.193-1.147-18.821-16.125-15.148-28.302c1.358-4.503-17.49-21.148-14.008-23.669 c2.256-1.633,3.459,1.379,4.503,2.967c23.11,35.141,32.373,22.115,43.029,14.101c7.239-5.444,17.842-5.384,23.252-13.811 c3.954-6.16,11.386-14.446,19.838-16.647c11.721-3.053,1.356-10.889,9.319-10.343c0.57,0.039,1.23,0.015,1.686,0.289 c6.306,3.793,13.536,4.404,20.466,6.064c4.575,1.096,2.717,0.289,21.248,16.302C844.862,781.248,846.032,782.63,846.09,785.855z"/> <path d="M339.427,1163.258c27.515-3.534,32.203-17.001,60.752-20.528c5.01-0.619,4.997-0.719,3.306-5.363 c-1.248-3.427-0.169-5.193,3.407-5.406c8.732-0.522,6.895,7.43,18.888,2.777c19.109-7.415,17.891-8.444,25.363-10.138 c3.854-0.874,8.056-0.755,11.437-3.323c0.293-0.222,0.709-0.479,1.031-0.436c10.204,1.363,18.614-4.97,28.135-6.638 c4.332-0.759,8.792-8.92,13.359-8.23c1.735,0.262,2.562,0.94,1.37,2.616c-3.46,4.863-12.614,16.813-18.204,18.167 c-7.278,1.763-3.26,8.713-12.881,9.257c-6.182,0.35-7.642,5.341-11.798,5.982c-6.318,0.975-11.173,5.586-17.398,6.717 c-1.791,0.326-3.205,1.31-3.355,3.399c-0.491,6.827,27.261,9.457,19.813,13.897c-6.122,3.649-11.505,9.186-19.622,7.987 c-0.535-0.079-1.124,0.174-1.682,0.297c-16.916,3.729-10.314-10.263-17.468-13.502c-12.834-5.812-11.619,0.296-32.533,3.047 c-4.178,0.55-6.09-1.117-8.859,0.097c-11.881,5.209-24.911-0.462-31.006,1.831C347.19,1167.378,343.79,1165.736,339.427,1163.258z"/> <path d="M928.233,227.812c-5.325-8.928-10.51-18.057-22.552-18.286c3.702,2.93,6.479,6.744,9.998,9.822 c2.954,2.584,2.738,3.878-0.624,6.128c-4.434,2.969-9.919,3.207-19.607,3.23c-8.478,0.019-8.278-5.77-10.538-16.157 c-4.827,2.905-10.771,2.871-13.665,8.262c-0.171,0.319-0.519,0.696-0.84,0.757c-5.147,0.976-6.929,5.535-9.702,9.039 c-0.471,0.595-0.957,1.601-1.503,1.649c-4.346,0.377-4.842,3.925-6.423,6.926c-2.568,4.874-11.493,8.41-14.726,11.495 c-3.847,3.67-7.671-0.119-7.002-3.677c2.052-10.914,12.154-33.389,14.272-44.271c1.593-8.186,11.056-9.375,18.44-13.087 c10.972-5.516-6.149-13.011,5.401-14.651c11.81-1.677,11.294,11.612,24.408,8.545c8.006-1.872,15.117,0.899,35.555,41.756 C929.371,225.781,929.596,226.359,928.233,227.812z"/> <path d="M522.48,167.254c-2.591,5.973-14.662,9.717-20.165,13.065c-13.439,8.178-21.39,4.482-22.859,14.673 c-1.607,11.142-12.66,15.135-4.858,16.95c2.552,0.594,6.112-0.543,7.076,2.581c2.845,9.22-6.235,13.235-15.769,14.007 c-3.221,0.261-2.798-3.69-4.002-6.14c-0.799-1.624-2.366-1.192-3.04,0.163c-8.226,16.544-59.087,39.543-17.557-7.289 c3.218-3.629,3.298-3.607,1.025-7.668c-2.92-5.217,3.858-2.22-1.432-9.62c-8.08-11.304-13.193-7.896-24.509-15.147 c-2.08-1.333-4.066-2.964-6.699-3.148c-1.047-0.073-1.701-0.681-2.357-1.434c-6.445-7.399,10.252-7.596,17.411-4.383 c3.868,1.736,7.204,4.99,12.216,3.31c3.102-1.039,12.297,13.376,24.557-1.419c7.056-8.515,18.509-9.531,59.318-8.799 C521.378,166.969,521.916,167.149,522.48,167.254z"/> <path d="M414.298,428.25c0.517-7.836-9.453-14.39-16.879-9.738c-11.722,7.344-2.957,8.507-15.251,16.097 c-3.803,2.348-3.611-3.087-5.642-1.971c-6.83,3.751-8.096-41.351,13.002-36.413c9.372,2.194,6.832-4.175,10.64-2.377 c4.946,2.336,12.53,7.478,22.957-0.332c11.751-8.802,10.8-11.185,42.694,5.339c7.452,3.861,6.145-0.843,18.052,11.064 c4.623,4.623,1.14,17.216-21.372,5.024c-3.434-1.86-6.729-3.641-10.775-3.339c-5.829,0.435-2.04-4.959-14.555,2.775 c-2.403,1.485-2.149,3.601,0.468,4.633c3.978,1.569,6.104,6.007,10.136,8.563c2.988,1.894,3,3.213,0.028,4.842 c-1.504,0.824-3.097,1.693-4.75,2.002C411.43,440.341,413.763,436.343,414.298,428.25z"/> <path d="M754.521,535.28c19.159-24.293,8.445-9.705,24.43-34.549c8.009-12.448,20.814-11.976,13.098-21.119 c-1.355-1.605-7.288-4.898-3.004-7.015c11.113-5.491,11.677,6.755,29.797,0.139c1.143-0.418,2.165-0.498,3.326-0.103 c4.685,1.594,9.864,1.124,14.385,3.496c4.79,2.513,7.849-4.579,11.802-5.913c2.042,1.104-0.008,2.662,1.121,3.905 c1.995,0.424,5.084-1.848,6.308,1.515c2.384,6.547-8.942,13.016-16.4,14.597c-3.101,0.657-2.667,2.629-0.589,3.618 c16.813,8.004,25.445,10.038,16.693,16.159c-13.972,9.77-20.398-3.239-28.25-7.031c-10.204-4.928-6.01,2.293-37.725,22.319 c-5.695,3.596-11.523,7.469-18.508,8.448c-2.861,0.401-3.827,3.385-6.62,4.247C758.454,539.824,758.56,540.167,754.521,535.28z"/> <path d="M427.77,965.596c0.197-4.789-0.745-8.702,1.891-12.112c0.479-0.619,0.383-1.896,0.187-2.789 c-1.762-8.008,4.192-19.823,14.38-21.318c1.587-0.233,2.844-1.389,4.322-1.402c3.861-0.033,4.639-2.027,4.633-5.51 c-0.009-4.978,5.021-8.349,11.141-3.314c11.281,9.282,14.987-8.675,26.277,1.279c5.947,5.243,10.528,11.543,14.139,18.521 c5.701,11.018,8.592,10.907,7.28,16.877c-1.121,5.097-3.142-0.634-8.708,4.848c-7.236,7.126-28.857,3.999-29.648-1.544 c-0.563-3.946-3.593-6.538-5.481-9.76c-0.72-1.229-1.572-1.236-2.839-0.515c-11.659,6.642-10.409,13.806-17.61,18.438 c-1.119,0.72-1.979,1.823-2.34,3.189c-2.13,8.062-13.67,17.664-13.764,11.364C431.539,975.759,425.34,971.113,427.77,965.596z M492.415,945.34c3.575,4.173,7.677,7.416,13.163,9.687c0.167-2.825-1.109-4.375-1.434-6.183c-1.123-6.257-1.321-6.405-7.518-5.006 C495.377,944.12,493.956,943.864,492.415,945.34z"/> <path d="M2026.588,918.84c1.145-10.112,10.296-7.417,24.896-24.571c11.244-13.211,29.806-17.45,27.622-28.627 c-0.236-1.21-0.316-2.758,1.603-3.14c1.831-0.364,3.924-1.569,5.284,0.432c7.054,10.376,16.358-4.984,45.571-0.792 c9.82,1.409,19.932-6.101,28.858-0.98c-4.134,3.508-7.97,7.325-13.075,9.397c-3.114,1.263-5.72,3.518-9.47,3.694 c-2.126,0.1-3.038,3.642-5.848,4.06c-6.09,0.907-11.584,4.49-18.013,4.038c-4.024-0.283-5.195,4.5,4.917,8.796 c2.983,1.268,4.199,3.947,5.565,6.331c1.767,3.083-2.336,8.709-6.467,8.869c-1.869,0.072-3.15,0.475-4.599,1.663 c-3.803,3.12-8.467,2.475-11.512-1.449c-7.152-9.216-2.186-8.384-7.425-12.633c-1.867-1.514-3.491-1.632-5.62-0.02 c-7.513,5.686-16.219,9.298-24.592,13.45c-7.608,3.773-9.425,6.506-14.825,7.078 C2042.703,915.152,2029.636,920.178,2026.588,918.84z"/> <path d="M1632.672,1091.647c-4.373,3.965-8.579,2.929-19.854,0.648c-2.278-0.461-3.99-1.961-4.078-4.24 c-0.286-7.478-10.328-6.292-11.314-9.332c-1.123-3.46-3.833,0.734-23.478,3.151c0,0-13.923,6.492-28.917,8.55 c-5.188,0.712-10.642-0.305-15.936,0.918c-1.546,0.357-2.46-0.843-3.06-2.114c-1.486-3.15,3.16-2.815,30.742-19.539 c28.151-17.067,37.737-6.411,38.134-16.14c0.163-3.992,3.692-5.44,6.133-2.546c9.327,11.06,17.11,0.08,47.001,13.822 c10.45,4.804,20.718,10.058,32.139,12.327c0.558,0.111,1.117,0.323,1.617,0.596c2.17,1.185,6.322,0.751,5.881,4.017 c-0.278,2.054-4.031,0.623-6.161,1.109c-12.783,2.916-19.163-1.393-44.567-5.858c-4.862-0.854-15.231-6.236-12.238,2.544 C1626.428,1084.579,1627.945,1085.825,1632.672,1091.647z"/> <path d="M1051.881,540.235c-8.064,7.43-21.949,7.493-27.149-2.218c-6.478-12.1-10.17-5.397-15.699-14.396 c-11.408-18.567-35.442,2.924-33.48-12.614c0.288-2.279,0.723-4.54,1.044-6.816c1.176-8.321,10.426-13.161,20.02-6.345 c6.399,4.547,6.151-6.539,12.702,0.86c4.34,4.901,11.419,6.446,15.552,1.657c6.051-7.011,9.66-11.405,17.489-12.932 c18.73-3.654,54.392,8.065,51.559,10.634c-1.442,1.307-0.891,4.127-3.04,4.281c-2.882,0.208-5.538,1.638-8.475,1.322 c-10.899-1.17-20.721,3.169-30.518,6.681c-5.258,1.885-9.72,6.033-14.468,9.267c-3.099,2.11,0.638,10.196,7.31,14.194 C1047.508,535.476,1050.199,537.286,1051.881,540.235z"/> <path d="M2108.548,1035.828c-4.845,3.162-8.552,5.677-14.035,5.792c-3.845,0.081-7.85,1.087-11.84,1.062 c-11.24-0.069,0.045-10.649-7.854-16.372c-10.991-7.963-15.968,3.643-31.311,11.833c-6.289,3.358-7.662,2.672-8.62-4.136 c-2.366-16.821,1.072-21.731,7.557-26.223c8.827-6.114,10.727-2.525,17.155-1.434c3.801,0.645,3.8,0.651,4.42-3.408 c0.595-3.897,1.94-4.67,5.333-3.023c3.89,1.887,6.735,6.266,11.957,0.048c7.555-8.993,17.406-9.322,27.752-8.295 c13.399,1.33,31.166,12.839,32.676,14.449c8.35,8.9-7.494,3.419-19.042,5.518c-11.622,2.113-17.526-3.899-28.35,8.288 C2091.184,1023.488,2105.519,1033.666,2108.548,1035.828z"/> <path d="M2471.253,1288.028c-1.958,0.561-3.822-0.565-5.791-1.245c-2.676-0.923-3.615-2.639-3.889-5.566 c-1.34-14.301-8.594-23.605-36.625-9.622c-11.143,5.558-4.004,9.748-12.112,9.533c-6.207-0.165,0.64-10.863-2.13-11.525 c-4.804-1.147-1.898-3.836-0.796-5.281c21.366-27.997,22.609-22.015,40.828-16.1c3.752,1.218,3.765,1.191,5.271-2.605 c3.963-10.003,7.411,1.952,11.928,2.405c3.517,0.352,7.41,0.574,10.005-1.598c9.096-7.614,17.455-4.36,25.743,1.049 c7.861,5.13,15.15,11.021,21.989,17.467c1.318,1.243,1.57,1.813-0.387,2.679c-1.686,0.745,0.81,5.425,1.644,6.656 c2.246,3.321-0.009,5.581-3.774,4.145c-4.591-1.75-5.27-10.598-29.842-15.594c-4.143-0.842-8.31,0.625-12.275,2.114 c-1.643,0.617-2.251,1.642-2.164,3.512c0.362,7.758,5.067,10.281,6.783,12.778c1.274,1.854,0.568,3.651-1.343,4.124 C2480.09,1286.401,2476.032,1288.374,2471.253,1288.028z"/> <path d="M1812.255,1242.579c13.306,1.405,36.947,10.154,49.507,16.033c4.527,2.119,5.013,1.816,7.124-2.745 c1.265-2.733,4.302-3.829,5.882-1.63c7.081,9.859,16.092,2.407,31.478-4.453c16.772-7.478,33.879-6.767,54.404-16.477 c1.204-0.569,2.37-1.35,3.727-0.482c0.23,0.608,0.163,1.161-0.318,1.536c-30.02,23.413-40.88,33.846-64.435,40.927 c-4.309,1.295-6.06,1.383-5.497,4.269c2.38,12.199,14.66,16.611,7.47,19.513c-5.296,2.138-10.8,2.516-16.286,0.822 c-10.472-3.234-2.206-9.892-11.106-16.474c-4.102-3.034-6.391-8.887-11.834-9.314c-2.939-0.231-30.385-16.267-42.64-24.731 c-2.662-1.839-5.262-3.767-7.891-5.655C1811.98,1243.339,1812.117,1242.959,1812.255,1242.579z"/> <path d="M1233.926,461.436c-3.1,7.095,1.227-0.566-12.802,18.835c-4.826,6.674-16.316,11.638-22.194,18.066 c-11.963,13.081-23.769,7.69-18.649,18.694c4.24,9.113,18.186,10.353,8.525,15.692c-6.463,3.572-16.199,5.852-18.452-1.24 c-1.523-4.796-0.602-9.059-10.562-12.83c-7.349-2.782-2.601,2.771-22.015,1.385c-1.002-0.072-32.338,0.527-42.799-1.904 c-3.012-0.7-5.553-2.286-8.476-3.222c12.062-2.526,23.914-5.325,35.372-9.672c3-1.138,6.388-2.097,9.512-1.883 c5.454,0.374,10.544-2.132,15.951-1.383c7.303,1.012-0.14-14.832,8.83-9.942c3.386,1.846,9.289,7.253,15.654,2.024 c19.949-16.389,32.72-14.967,55.934-30.188C1229.34,462.829,1231.005,462.017,1233.926,461.436z"/> <path d="M328.208,1052.262c8.247-2.712,21.05-3.02,21.656-2.618c8.707,5.771,10.688-7.329,15.658-3.63 c5.479,4.078,6.978,4.925,9.618,3.857c3.947-1.598,5.771,3.571,12.408-3.642c9.597-10.43,31.355-14.516,47.046-21.158 c12.773-5.407,13.304-8.658,15.648-6.433c1.475,1.401,2.94,3.218,1.895,5.024c-2.397,4.142-3.113,9.714-8.796,11.342 c-0.549,0.157-1.276,0.309-1.548,0.714c-2.283,3.392-6.127,4.987-8.873,7.719c-4.359,4.336-8.947,8.17-14.445,10.922 c-0.661,0.331-1.375,0.885-1.693,1.521c-4.341,8.677-19.211,5.588-12.952,12.291c1.42,1.521,1.011,0.614,16.875,10.169 c5.674,3.418-5.73,11.775-26.488,2.454c-8.189-3.677-13.607-4.44-20.395-10.338c-3.883-3.375-8.312-7.596-14.473-6.812 c-6.326,0.804-5.151-4.563-9.8-2.081c-0.356,0.19-1.192-0.05-1.535-0.376c-3.536-3.36-8.16-3.873-12.559-5.133 C333.007,1055.35,330.838,1053.678,328.208,1052.262z"/> <path d="M1396.145,1218.206c-4.588,9.599-10.319-2.721-13.131,4.203c-0.577,1.42-3.17,1.062-4.823,1.067 c-8.054,0.025-16.074,1.536-24.143,0.602c-4.832-0.559-17.525,5.797-21.834,8.141c-3.567,1.94-3.474,2.549-1.041,5.596 c2.091,2.619,4.803,4.382,7.712,5.902c0.815,0.426,1.89,0.506,2.112,2.025c-1.404,0.727-3.242,1.319-2.718,3.789 c0.481,2.266-1.28,2.648-2.884,2.207c-6.915-1.902-13.47,3.482-19.217-7.316c-2.742-5.154-10.923-5.061-18.104-14.383 c-0.865-1.122-1.863-2.023-3.348-1.858c-4.338,0.483-8.766-0.761-13.054,0.721c-3.78,1.307-7.041-1.516-8.955,4.666 c-4.073-3.675-5.386-7.347-3.712-12.369c3.486-10.458,10.43-17.667,20.47-12.984c8.325,3.882,19.477,14.466,31.237,3.558 c1.269-1.177,7.016-6.213,8.805-6.289c12.059-0.514,8.743-5.312,49.02,5.177C1384.713,1212.27,1390.363,1215.051,1396.145,1218.206 z"/> <path d="M1996.057,61.516c0.034-0.004,50.962-3.166,57.71-3.106c13.05,0.117,7.153-9.584,10.866-11.343 c2.009-0.952,2.972,0.634,3.67,1.802c4.691,7.851,11.944,3.653,22.359-1.453c34.676-17.001,15.785-5.119,53.972-24.232 c2.087,3.174-19.759,23.784-40.275,37.982c-9.601,6.644-25.256,4.228-15.219,16.375c5.937,7.186,10.494,8.156,6.909,11.835 c-5.034,5.165-21.577,8.945-23.625,1.283c-2.286-8.551-0.04-8.352-2.728-12.729c-5.159-8.4-9.25-0.343-23.996-3.73 c-3.492-0.802-7.245-0.653-10.878-0.615c-7.368,0.078-30.335-5.807-36.758-9.696C1997.273,63.409,1996.38,63.038,1996.057,61.516z"/> <path d="M872.65,1329.322c-20.237-2.923-46.175-15.463-48.101-7.573c-1.085,4.445,18.782,7.598,13.351,12.901 c-5.984,5.843-4.773,2.629-9.93,5.172c-2.99,1.475-6.148,1.065-9.242,1.43c-11.656,1.374-5.002-8.738-12.896-13.172 c-4.993-2.805-0.985-3.343-57.252,35.318c-3.796-3.6-3.126-5.465,8.545-20.972c9.344-12.415,8.481-16.534,20.784-26.467 c5.363-4.33,16.343-3.621,14.866-10.646c-1-4.753,0.985-6.156,5.757-4.599c39.719,12.959,5.485-10.704,56.379,18.212 C871.232,1328.201,872.975,1325.236,872.65,1329.322z"/> <path d="M1432.076,245.789c3.418-5.684,10.519-6.512,12.031-11.561c0.7-2.34,3.763-3.959,6.492-4.086 c2.595-0.121,4.254-1.47,6.045-2.886c19.923-15.753,25.198-12.795,32.398-15.947c5.789-2.534,3.247-4.77,3.857-11.825 c0.254-2.935,3.013-3.083,7.159,1.626c8.669,9.845,11.848-0.72,38.23,18.493c5.966,4.345,12.688,7.281,19.416,10.191 c-3.101,0.986-3.12,1.044-5.515,0.297c-8.266-2.577-16.866-3.45-25.328-5.027c-4.479-0.835-4.053,3.034-3.178,4.43 c4.877,7.773,17.299,11.797,11.799,15.55c-7.489,5.111-15.324,6.439-23.783,2.585c-2.025-0.922-3.804-1.608-2.855-4.564 c0.962-2.997-1.252-5.487-2.351-7.991c-2.389-5.447-10.031-1.881-14.569-0.259c-6.19,2.213-4.435-3.662-19.944,2.508 c-8.693,3.458-13.132,3.743-36.205,8.733C1434.651,246.301,1433.617,246.629,1432.076,245.789z"/> <path d="M1273.753,659.275c14.139-2.993,27.668-2.039,40.573,2.892c2.854-2.072-0.245-6.71,3.107-8.503 c2.496-1.334,3.553,1.007,7.348,3.451c11.028,7.1,7.983-6.554,45.782-20.38c15.921-5.824,16.727-10.401,20.691-6.529 c2.973,2.904-24.845,31.041-47.142,43.799c-5.033,2.88,2.138,10.135,6.38,12.528c2.293,1.294,5.595,2.63,5.372,5.41 c-0.305,3.804-27.42,11.68-26.56,1.839c2.02-23.147-16.224-13.382-52.289-31.589 C1275.83,661.595,1274.557,661.063,1273.753,659.275z"/> <path d="M116.851,1230.373c0.751-6.561,9.978-4.537,5.929-11.805c-1.217-2.184-4.071-3.547-2.862-6.969 c3.742-10.594,3.104-10.38,13.144-16.151c3.937-2.263,7.704-0.249,8.066,4.321c0.161,2.036-0.592,4.237,1.151,6.07 c3.507-0.44,5.941-2.774,7.997-5.171c6.775-7.9,15.379-13.241,24.496-17.777c9.194-4.574,4.609-7.085,5.675-10.993 c0.27-0.07,0.517-0.219,0.623-0.15c7.774,5.051,24.775,5.56,36.245,17.969c5.624,6.085,12.191,8.992,18.603,17.017 c-7.183-1.977-14.244-2.928-21.594-2.895c-13.167,0.058-11.819-16.647-28.284-9.051c-26.028,12.01-19.492,10.132-37.05,16.603 c-4.145,1.528-5.124,2.756-4.612,5.938c0.932,5.798,1.777,6.688,6.527,6.742c13.471,0.152,14.045-0.25,15.343,0.875 c4.125,3.576-0.912,5.945-6.309,5.475c-9.993-0.87-19.805,1.694-29.809,1.374C125.648,1231.649,121.553,1229.98,116.851,1230.373z"/> <path d="M482.424,87.831c-6.633,1.244-17.631-1.194-18.862-7.499c-1.443-7.397-4.666-11.79-11.5-24.954 c-7.802-15.029,4.483-14.453-0.408-27.524c-0.691-1.846-1.694-3.714-0.91-5.942c2.248,6.576,8.496,9.986,11.832,15.779 c2.722,4.728,6.11,4.664,10.74,1.498c6.406-4.38,15.569-19.63,64.33-18.859c3.469,6.529-12.202,14.626-19.121,16.34 c-1.105,0.274-2.546,0.46-3.166,1.225c-5.136,6.345-13.349,7.085-19.747,11.069c-6.343,3.951-11.917,9.095-18.748,12.293 c-2.992,1.401-4.773,3.077,1.993,18.041C480.024,81.881,481.049,84.527,482.424,87.831z"/> <path d="M1680.763,1279.651c-4.233,0.584-8.253-0.474-12.074-1.257c-23.45-4.807-42.977,3.843-18.395,19.114 c1.387,0.862,3.812,1.127,3.203,3.347c-1.583,5.777-13.964,9.14-21.171,0.484c-4.684-5.626-13.018-6.986-17.743-12.281 c-7.709-8.64-24.968,15.32-27.108,6.184c-5.333-22.76,0.82-26.241,11.292-26.481c6.745-0.156,7.602-3.904,12.962-0.787 c17.917,10.421,7.965-13.852,32.652-10.22c13.803,2.031,25.014,9.143,35.058,18.376 C1680.184,1276.813,1681.115,1277.759,1680.763,1279.651z"/> <path d="M1917.499,278.818c2.039-2.326,1.811-1.983,22.512-2.454c10.393-0.237,12.489,2.274,20.784,3.84 c7.694,1.453,0.373-3.953,3.353-7.195c5.247-5.707,7.893,9.343,17.915,1.716c2.113-1.609,4.283-3.351,5.815-5.474 c6.705-9.292,19.96-8.811,46.088-19.145c2.277-0.901,3.506,0.617,5.525,1.533c-5.728,10.75-35.514,29.348-45.962,35.504 c-3.247,1.914-5.268,2.507-3.48,5.714c1.584,2.843,2.862,5.607,6.117,7.272c3.528,1.805,5.868,5.403,9.364,7.095 c-0.128,1.814-0.827,3.095-2.024,3.694c-8.205,4.097-15.689,7.848-17.953,1.527c-2.522-7.044-12.571-18.455-21.102-19.351 C1942.189,290.755,1925.077,283.924,1917.499,278.818z"/> <path d="M1449.081,716.908c12.284-0.203,27.918-0.032,39.491,4.447c3.019,1.169,5.808,2.806,8.702-0.685 c1.271-1.534,3.632-0.843,5.295,0.413c6.671,5.036,13.628,4.502,20.563,0.835c12.446-6.58,26.136-8.326,39.724-10.424 c14.177-2.189,23.123-6.333,23.123-6.333c3.758-0.341,4.746,2.226,1.693,4.087c-8.979,5.473-17.338,11.921-27.027,16.296 c-4.484,2.025-9.005,4.063-13.343,6.495c-19.458,10.911-29.299,3.727-25.84,13.873c3.177,9.321,9.958,14.919,3.079,15.373 c-19.214,1.271-9.835-21.327-34.333-26.767C1475.432,731.238,1462.587,723.482,1449.081,716.908z"/> <path d="M563.401,1325.211c5.619,5.825,12.866,7.097,17.937,11.776c-3.969,3.955-6.576,7.641-10.479,5.141 c-5.038-3.227-6.312,1.955-14.788-4.539c-3.306-2.533-7.648-3.249-11.804-3.842c-5.416-0.774-18.593,16.112-24.272,18.567 c-4.335,1.874-7.89,4.711-11.125,7.98c-2.213,2.237-5.094,3.392-7.515,5.259c-2.676,2.064-2.057-3.833-4.788,0.493 c-2.051,3.248-5.093,5.317-8.254,7.74c-0.611-2.359,0.795-3.487,1.775-4.355c11.548-10.234,13.471-37.414,27.714-45.812 c8.19-4.829,9.458-7.429,8.299-11.386c-2.23-7.611,6.801-10.363,10.381-3.323c0.412,0.81,0.148,1.965,1.233,2.395 c13.244-4.394,19.07,0.358,47.311,17.578c2.24,1.366,4.656,2.31,6.911,3.744C582.165,1332.793,574.35,1325.262,563.401,1325.211z"/> <path d="M147.484,253.477c0.889,5.157,4.537,8.148,7.357,11.68c1.097,1.373,3.721,2.19,2.551,4.584 c-1.261,2.582-12.944,4.04-20.153-6.269c-3.347-4.786-9.525-10.923-14.63-8.749c-28.08,11.956-42.392,33.193-48.896,27.611 c-2.969-2.548,10.743-24.526,14.128-29.317c14.834-20.998,16.434-15.347,23.245-16.687c4.941-0.972,5.003-1.017,4.523-6.102 c-0.313-3.316,2.186-6.671,5.97-3.452c8.814,7.5,15.776,8.943,19.338,8.653c7.982-0.649,20.412,23.307,23.775,30.552 C158.192,264.152,160.051,253.318,147.484,253.477z"/> <path d="M821.52,1035.671c-6.83,2.272-25.074-10.647-31.029-14.892c-6.852-4.886-3.186-11.524-9.269-11.789 c-4.714-0.205-9.458-1.818-14.092,0.515c-3.495,1.76-15.11-9.853,0.462-18.894c9.39-5.452,12.643,5.723,22.321,6.453 c2.085,0.157,9.444,10.63,21.243,4.551c9.566-4.929,18.062-1.881,37.957,10.07c18.232,10.953,16.668,10.504,20.769,15.131 c2.469,2.785-2.161,4.505-5.616,3.167c-1.012-0.392-30.085-11.634-32.306-11.661c-14.813-0.183-21.373-1.332-17.69,5.908 C816.298,1028.211,817.085,1032.902,821.52,1035.671z"/> <path d="M354.018,776.812c-1.031,2.251-1.519,4.177-4.431,4.034c-9.08-0.447-21.849,6.557-41.828,2.716 c-1.33-0.256-2.598-0.296-4.823,0.032c4.883,6.277,11.774,9.08,17.588,13.757c-7.521,4.626-13.465,2.892-19.083,1.839 c-12.111-2.269-6.794-13.421-25.155-15.343c-42.755-4.476-5.756,1.137-37.976-6.703c-3.139-0.764-19.446-5.368-20.521-8.403 c16.223,0.27,32.324-1.425,48.477-0.998c4.351,0.115,4.355-0.018,5.497-4.342c0.958-3.625,1.299-3.817,4.552-2.475 c0.705,0.291,1.548,0.499,2.04,1.018c6.128,6.464,7.579,4.408,53.517,13.201C339.199,776.547,349.293,774.853,354.018,776.812z"/> <path d="M340.736,125.263c-5.461-2.888-6.471-0.948-32.319-1.168c-7.158-0.061-4.961,3.228-12.18,7.488 c-3.904,2.303-3.931,2.727-1.344,6.7c6.374,9.786,11.651,10.937,11.423,14.043c-6.495,0.318-12.943,4.113-19.601-0.36 c-2.292-1.54-4.292-2.959-4.816-6.006c-1.517-8.809-11.599-6.398-14.199-18.414c-0.393-1.815-1.809-2.885-2.865-4.23 c-1.447-1.844-2.957-1.016-4.552-0.083c-2.682-5.825-2.087-11.491,0.359-17.103c2.367-5.433,4.998-0.59,9.5,4.682 c16.455,19.272,13.363-8.658,32.431-6.904c13.97,1.285,26.269,6.749,37.469,14.94C341.825,120.152,341.733,120.277,340.736,125.263 z"/> <path d="M1352.008,149.92c-1.805,0.914-16.587,7.018-19.398-2.554c-1.935-6.59-9.35-12.481-17.164-9.385 c-7.224,2.863-14.898,4.425-21.947,8.139c-4.313,2.272-24.534,5.411-33.036,9.269c-3.096,1.405-3.184,1.211-6.785-1.023 c1.544-2.887,4.416-4.25,7.055-5.491c15.471-7.273,10.65-12.087,41.6-25.251c7.595-3.231,13.539-3.296,12.132-11.326 c-0.561-3.202,1.624-4.699,3.439-3.031c11.6,10.66,23.788,8.865,51.786,34.624c0.531,0.488,1.168,0.982,0.812,2.381 c-9.165-4.146-18.264-8.261-28.098-12.709C1342.191,141.608,1349.335,144.077,1352.008,149.92z"/> <path d="M305.326,514.914c3.252-1.002,6.254,3.821,9.324,0.379c4.915-5.51,7.367,8.941,18.036-0.253 c8.498-7.323,4.25-7.27,22.634-20.975c4.951-3.691,11.143-4.727,16.202-8.187c2.069-1.415,8.147,2.471,4.362,4.614 c-4.358,2.467-5.231,6.795-6.166,11.105c-1.771,8.16-18.53,26.819-24.723,31.126c-7.535,5.24,23.821,13.407,16.888,17.446 c-13.073,7.617-15.583,6.154-22.69,4.85c-5.001-0.918-6.966-0.896-6.152-10.374c0.629-7.333-8.875-2.921-16.437-17.812 C313.442,520.604,305.204,518.237,305.326,514.914z"/> <path d="M1718.212,1145.934c-2.146,3.192-5.278,4.443-7.784,6.442c-1.235,0.985-2.412,0.431-3.76,0.107 c-8.2-1.971-3.431,5.529-7.775,6.21c-17.032,2.671-20.762-0.826-18.271-3.314c8.69-8.679-4.855-19.231-9.345-20.854 c-20.703-7.482-26.465-6.418-31.349-16.623c9.286-0.135,17.806,0.766,25.804,4.707c7.759,3.824,9.834,6.773,13.122,2.871 c3.119-3.702,3.324-3.746,7.267-1.291c5.704,3.551,5.14-7.992,17.245-16.857c8.837-6.471,18.313-11.922,27.847-17.264 c1.302-0.729,2.773-2.532,4.532-0.503c1.67,1.927-0.1,3.291-0.924,4.565c-14.149,21.892-8.919,3.151-34.113,42.011 C1694.916,1145.076,1713.111,1141.928,1718.212,1145.934z"/> <path d="M468.537,535.176c2.97,5.975,7.955,6.563,8.783,10.471c1.076,5.086-4.12,3.062-7.36,3.927 c-7.475,1.995-18.891-20.643-23.395-6.419c-1.313,4.147-3.657,8.064-2.414,12.739c0.963,3.62-4.097,4.621-5.973,2.89 c-4.32-3.988-4.076-6.895-6.985-7.258c-6.596-0.823-0.692-6.203-5.689-20.202c-0.314-0.881-0.273-1.892-0.373-2.845 c-1.212-11.482,9.783-2.655,8.3-12.227c-0.466-3.008,0.694-4.801,3.666-5.334c10.718-1.923,8.765,9.386,20.457,4.861 c11.222-4.342,18.379,5.317,19.951,5.465c7.658,0.721,5.638,7.517,11.985,9.439c6.427,1.946,9.78,7.642,14.242,11.978 c1.64,1.593-1.795,4.423-3.543,2.183c-3.553-4.553-9.38-5.767-13.644-9.34c-2.255-1.89-5.323-2.809-8.026-4.164 C475.284,529.719,476.102,531.857,468.537,535.176z"/> <path d="M2135.643,1232.702c0.294,5.94,4.817,4.881,8.648,10.601c1.198,1.788,0.415,3.929-1.592,3.753 c-3.694-0.323-6.641,1.49-9.919,2.4c-9.472,2.629-9.755-5.009-13.3-10.06c-2.545-3.627-6.253-3.929-9.045-0.556 c-1.45,1.752-2.858,2.796-5.171,3.072c-7.411,0.885-29.085,24.132-34.891,23.28c-2.565-2.728,7.683-24.556,20.3-37.414 c8.119-8.274,10.84-1.463,16.844-9.866c5.47-7.655,3.952,2.213,16.541,1.175c17.105-1.41,31.983,13.937,32.855,17.307 C2149.933,1233.249,2142.878,1233.113,2135.643,1232.702z"/> <path d="M1224.428,552.488c2.797-0.223,1.799-0.268,30.775,8.409c2.875,0.861,5.396,1.686,6.687-2.578 c0.807-2.666,2.975-3.083,4.922-1.001c11.096,11.87,70.17-15.423,75.474-12.473c-7.305,5.852-13.096,13.17-22.495,15.481 c-5.207,1.28-6.985,7.084-18.524,10.05c-26.198,6.735-10.654,9.46-0.712,20.525c-5.597,5.551-25.881,9.931-25.278-3.328 c0.586-12.878-13.864-9.534-49.857-33.445C1225.144,553.946,1225.034,553.512,1224.428,552.488z"/> <path d="M940.22,333.97c-3.184,3.542,0.223,5.895-0.227,16.607c-0.115,2.736,5.198,2.604,7.469,1.975 c1-0.277,8.925-3.881,9.76,1.474c0.503,3.228-1.656,5.575-5.444,5.918c-2.521,0.228-4.928-0.438-7.384-0.836 c-10.381-1.682-8.164,6.344-12.647,8c-1.11,0.41-1.999,1.135-2.345,2.349c-1.514,5.308-6.193,7.568-10.133,10.549 c-2.539,1.921-5.469,1.473-8.316,1.408c-3.7-0.085-4.674-12.551,1.259-22.041c3.883-6.211-5.982-4.225-5.101-9.226 c1.014-5.751,12.094,0.959,10.588-8.388c-1.131-7.022,3.788-12.216,4.488-18.578c0.177-1.61,1.403-2.67,2.728-3.54 c5.337-3.507,1.876-8.795,9.653-7.94c3.515,0.386,5.513,1.659,6.33,4.551C942.31,321.245,943.679,330.122,940.22,333.97z"/> <path d="M1279.666,1341.985c-8.243-1.76-5.826-8.123-13.706-8.27c-13.255-0.247-14.504-2.068-31.509-11.958 c-10.109-5.88-45.366,27.685-52.648,26.214c-5.713-1.153-2.797-6.368,22.486-33.133c4.563-4.831,10.053-8.165,16.7-7.358 c6.215,0.754-1.027-12.617,9.272-7.212c11.059,5.804,21.21,7.279,27.949,15.379 C1265.155,1323.995,1271.938,1332.476,1279.666,1341.985z M1255.639,1321.832c2.555,3.765,5.088,6.572,10.137,8.307 C1262.971,1325.725,1261.661,1321.459,1255.639,1321.832z"/> <path d="M1635.085,213.84c-2.734-3.356-4.222-7.29-8.16-9.077c-1.939-0.88-4.462-3.14-6.214-1.103 c-3.589,4.173,3.915,9.227,6.014,15.247c-5.039,1.965-9.847,2.185-14.715-0.223c-3.656-1.808-2.778-20.269-17.012-10.805 c-1.428,0.949-2.835,2.026-3.977,3.292c-29.1,32.234-18.072,20.995-23.638,29.121c-1.867-0.363-1.563-1.497-1.302-2.298 c6.309-19.42,2.091-15.132,13.43-40.794c2.295-5.192,7.073-6.521,12.487-8.33c11.3-3.774,2.304-9.924,8.664-12.211 c4.313-1.551,1.723,6.614,12.346,8.785C1626.379,188.175,1629.392,200.298,1635.085,213.84z"/> <path d="M351.576,172.625c-7.877,9.293-23.457,0.966-12.815-12.74c3.88-4.997-3.84-5.749,3.303-7.63 c2.194-0.578,10.759,1.567,11.177-7.999c0.211-4.841,40.143-24.388,34.122-10.709c-3.759,8.54-12.755,11.92-16.145,22.591 c-2.372,7.465,3.851,7.411,10.135,9.047c9.08,2.363,1.655,7.057-1.376,6.916C377.564,171.989,359.518,163.256,351.576,172.625z"/> <path d="M1687.466,456.064c-8.444-3.724-9.296,4.58-13.341,10.845c-4.393,6.803-16.503,8.782-18.145,0.565 c-3.133-15.686-3.175-17.651-0.674-19.259c4.562-2.933-0.179-8.728,7.116-20.574c4.175-6.781,13.868-5.727,16.59,1.871 c3.861,10.775,0.681,13.282,7.133,12.396c4.344-0.597,10.335-1.395,11.169,5.028 C1698.212,453.844,1694.433,456.064,1687.466,456.064z"/> <path d="M593.066,747.512c0.348,0.287,1.036,0.565,1.117,0.966c0.972,4.77,3.159,9.425,2.587,14.336 c-0.719,6.182,7.105,3.969,12.778,1.948c5.658-2.016,4.349,0.406,8.805-0.41c12.209-2.235,16.511,4.118,34.301,8.769 c1.281,0.335,2.661,0.221,3.522,1.54c0.995,1.524,3.112,2.549,2.163,4.905c-0.978,2.428-2.961,1.069-4.495,1.054 c-6.641-0.065-13.305,0.126-19.738-2.136c-1.165-0.409-2.941-0.421-3.916,0.199c-8.324,5.292-33.21-4.065-26.919,10.755 c2.454,5.781,2.454,5.781,1.951,9.564c-7.91-2.228-13.696-8.87-13.469-9.771c1.739-6.897-11.75-12.172-4.425-26.8 c2.016-4.026,5.136-7.575,4.206-12.604C591.385,749.023,591.813,747.925,593.066,747.512z"/> <path d="M320.377,1009.955c-4.777,6.072-8.797,10.623-15.013,13.217c-6.161,2.571-12.009,5.857-18.684,7.052 c-10.369,1.855,0.822,7.434,6.829,12.955c-4.627,3.729-9.417,3.631-13.971-1.125c-6.733-7.032-9.57-4.254-14.491-7.221 c-10.27-6.191-20.191-13.006-32.233-17.106c5.615-2.362,11.379,3.307,19.088-1.331c6.543-3.937,7.231,7.733,22.727,2.802 c11.728-3.732,24.131-3.93,35.996-6.937C313.389,1011.561,316.176,1010.946,320.377,1009.955z"/> <path d="M291.723,1121.143c-3.409,1.693-19.208-5.127,2.818,19.551c-1.309,1.441-2.62,0.959-3.835,0.668 c-24.323-5.829-23.426-15.254-32.596-18.648c-3.419-1.265-8.837-1.775-5.453-4.988c5.795-5.502-0.844-3.811-4.32-13.881 c-2.539-7.357,3.911-17.776,7.704-13.064c7.154,8.89,4.744,9.7,13.613,18.358c3.91,3.817,1.996,9.004,10.528,8.586 C288.684,1117.307,290.768,1118.52,291.723,1121.143z"/> <path d="M1033.693,956.922c-12.098,1.65-27.852-2.206-34.292-6.44c-3.274-2.153-6.06-26.605,7.892-15.05 c6.93,5.739,17.536-12.683,23.847-8.401c2.915,1.977,1.383,4.796,0.994,7.348c-1.423,9.335-9.9,11.835-5.943,17.411 c1.672,2.356,2.936,4.923,6.528,4.025C1032.87,955.778,1033.163,956.305,1033.693,956.922z"/> <path d="M203.147,1327.234c-8.903-1.958,3.584-2.068-22.352-3.45c-5.752-0.307-17.246-5.247-16.443-8.072 c0.994-3.501,6.643,1.012,5.507-5.822c-0.78-4.692,2.061-7.918,5.363-10.729c1.93-1.642,3.502-0.55,5.049,0.779 c13.735,11.802,7.238,20.465,15.878,19.536c4.11-0.442,11.748,3.723,10.109,6.828 C205.595,1327.561,204.227,1327.007,203.147,1327.234z"/> <path d="M338.792,18.564c3.675,3.392,2.132,7.861-1.187,6.175c-2.631-1.337-8.458-7.36-13.473,0.961 c-1.12,1.858-1.077,5.218-3.936,5.047c-2.236-0.134-2.5-3.104-3.485-4.897c-2.35-4.279-9.183,0.794-11.658,4.99 c-2.525,4.279-6.533-1.011,1.264-9.529C315.663,11.099,326.991,7.67,338.792,18.564z"/> </g> </svg>