<?xml version='1.0' encoding='utf-8'?>
<svg xmlns="http://www.w3.org/2000/svg" viewBox="0 0 938.35 3000"><defs><style>.cls-1{fill:#404040;}.cls-2{fill:#f3c6a4;}.cls-3{fill:#161616;}.cls-4{fill:#f2f2f2;}.cls-5{fill:#605250;}.cls-6{fill:#c7a388;}.cls-7{fill:#939d9d;}.cls-8{fill:#a0bed9;}.cls-9{fill:#2e2e2e;}.cls-10{fill:#2f2f2f;}.cls-11{fill:#fefefe;}.cls-12{fill:#302e2e;}.cls-13{fill:#f7f6f5;}.cls-14{fill:#303030;}.cls-15{fill:#313030;}.cls-16{fill:#333;}.cls-17{fill:#323232;}.cls-18{fill:#6c635e;}.cls-19{fill:#828e9e;}.cls-20{fill:#818989;}.cls-21{fill:#c8c8c8;}.cls-22{fill:#c7c8c8;}.cls-23{fill:#d1d0d0;}</style></defs><title>Business man</title><g id="Layer_2" data-name="Layer 2"><g id="Layer_1-2" data-name="Layer 1"><path class="cls-1" d="M787,1740c.39,24.48,1.26,48.92-2.15,73.35-2.49,17.8-3.61,35.76-4.44,53.77-2.29,49.94-4.52,99.91-8.26,149.76-3,40.46-4,80.91-3.66,121.41.49,60.11-4,119.88-11.54,179.45a324.1,324.1,0,0,1-5.6,32.48c-7.63,32.93-6.22,66.57-8.54,99.92C738.94,2506,736.64,2562,735.18,2618a482.67,482.67,0,0,1-10.35,87.68c-7.26,34.18-10,69.2-11.31,104.22-.3,8.46-1,16.91-1.48,25.37a11.52,11.52,0,0,1-8.68,1.09c-43.55-11.23-86.79-4.65-130,2.1-10.88,1.7-21.8,1.35-32.72,1.1-6.65-.16-12.86-1.51-17.21-7.21a1831.73,1831.73,0,0,1-.62-191.67,173.48,173.48,0,0,1,6.69-38.28,122.57,122.57,0,0,0,4.61-41.46c-2.71-43.39-2.52-86.88-3.79-130.31-2.82-96.35-7.68-192.73-3.58-289.18,1.3-30.54-1-60.89-4-91.2-3.16-31.79-2.38-64-8.63-95.42-5.87-29.56-4.76-59.68-8.57-89.39-4.83-37.64-9.57-75.25-19.19-112.07-1.38-5.27-1.82-10.79-2.7-16.2-1-.9-1.76-3.44-2.27-3-1.62,1.46-1.87,3.94-2.83,5.95-3.66,58.41-12.37,116.21-20.39,174.11-2.12,15.32-2.68,30.87-3.71,46.33-3.27,48.86-5.94,97.77-9.79,146.58-2.28,28.87-6.53,57.57-9.59,86.39-3.22,30.34-5,60.55-.43,91.15,2.57,17.11,1.27,34.95.43,52.4q-3,63.69-2.2,127.4c.35,23.58,5.69,46.88,13.61,68.86,12.44,34.55,11.1,69.79,9.64,105.22-1.1,27-3.41,53.86-4.75,80.81a186.37,186.37,0,0,1-4.84,34.06c-7.07,29.69-13.29,59.5-13,90.23.05,5.43-1.43,9.76-6.16,12.69-20,9-38.31,1-55.65-7.08-20-9.26-40.08-14-62.06-13.06-14,.63-26.41,3.53-37,13.31-5.42,5-11.43,10-19.93,6.7.36-10.37-4.3-19.43-8.46-28.3-5.46-11.64-7.6-23.58-7.7-36.24-.24-31-.93-61.94-1.11-92.92-.14-23.11-4.73-45.69-7.87-68.4-10.09-72.77-17.62-145.61-17.84-219.27-.2-66.91-4.25-133.74-9.57-200.51-3.13-39.3-2.68-78.88-3.93-118.34-1.75-55.43-4.63-110.76-11.22-165.89-2.79-23.27-3.14-46.83-4.52-70.26-1.17-19.94-2.21-39.89-3.32-59.84-1.71-7.32,0-14.79-.88-22.11-1.08-9.36,1.64-15.43,10.64-20.17,10.51-5.54,10.45-12,3.14-21.74-6-8-17-10.51-21.12-20.29-1.31-5.62-1.56-11.14,1.48-16.36,6.58-4.17,11.1,1.53,16.21,3.66,7.37,3.07,14.48,4.44,21-1.32s4.1-12.67,2.06-19.43a241,241,0,0,0-9.51-25.15c-6.2-14.45-8.38-29.43-8.43-45.14-.16-55.92-27.76-71.45-79.86-58.87-22.81,5.5-43.32,14.79-57.9,34.24a8.49,8.49,0,0,1-7.72,3.76c-8.1-.53-9-6.9-10-12.79-3-19.24-5.53-38.55-8.61-57.77-6.82-42.43-11.24-85.11-15-127.91-1.85-20.84-6-41.51-9.73-62.14a202.05,202.05,0,0,1-2.74-32.81c-1.23-71,2-142,4.52-212.89,1.35-37.89,7-75.54,12.15-113.16,2.95-21.78,5.82-43.65,6.83-65.57,1.38-30,4.21-59.82,4.59-89.85.16-13.41,3.93-26.75,4.44-40.18,1.76-46.65,13.43-91.85,19.49-137.86a268.29,268.29,0,0,0,2.44-32.83c.12-15.58,7.31-26.6,20.67-34,3.06-1.69,6.17-3.3,9.34-4.77,45.24-21.06,90.34-42.47,135.82-63a475.19,475.19,0,0,0,92.69-54.69c5.9-4.5,12-9,15-16.27,12.73-3.44,9.5,7.43,9.49,12.31,0,21.58,2.89,42.76,5.74,64a1154.65,1154.65,0,0,0,32,156.82c10.69,38.45,23.34,76.36,33,115.11a82,82,0,0,0,6.38,16.75c14.86,32.12,24,66.32,35.62,99.62,5.57,16,12.35,31.47,17.83,47.44.61,1.93.39,4.05,1.19,6,.17-1.32-.23-2.63-.08-4C481,888.6,500,836.54,513.84,783c7.75-26.87,13.86-54.15,20.26-81.33,17.72-75.31,36-150.5,46-227.4,2.08-16,.72-31.94,2-47.83.48-5.81-1.95-15.4,9.93-13.54,1.68,1.85,3.64,3.51,5,5.58,14.1,21.82,35.25,34.71,57.55,46.5,63.18,33.39,129.3,60.47,194.13,90.31,8.85,4.08,13.36,9.81,15.47,18.5a27.7,27.7,0,0,1,.83,5.93c1,47.19,13.37,92.91,17.93,139.64a136.68,136.68,0,0,0,8.08,35c8.89,23.7,9.66,48.89,12.71,73.56C910.69,884,923.22,939.1,930,995.16c1.55,12.89,2.62,25.84,3.72,38.79,6.08,71.36,4.62,142.87,4.11,214.37-.15,20.62-3.28,40.8-6.39,61.06-5.16,33.65-6,67.69-8.6,101.57a919.38,919.38,0,0,1-17.41,118.49c-2.66,12.66-3.53,25.71-5.08,38.6-.62,5.14-.9,10.32-8.14,9.94-4.83-.42-8.21-3.46-11.42-6.6-28-27.35-62.27-36.29-100.23-34.74-16,.65-21.2,4.19-25.48,20a160.44,160.44,0,0,0-5.88,47.37c.65,19.25-2,37.83-9.55,55.64a62.22,62.22,0,0,0-2.37,7.1c-2.12,7.48-3.81,15.33,4.39,20,7.49,4.28,13-1.33,18.68-5.48,12.29-9,16.69-23.18,24.2-35.36a4.16,4.16,0,0,1,4.25,1.81c4.65,10.43,2.16,21.37,2.32,32.1-.51,9.34-6.24,15.4-13.24,20.56a72.54,72.54,0,0,0-19.69,22.17c-2.87,4.91-4.39,10.4-.82,15.49s8.83,3.25,13.73,2.49C776.37,1739.75,781.61,1737,787,1740Z"/><path class="cls-2" d="M588.94,164.27c10.34,1.65,14,4,14.58,13.07,1.94,29,.11,57.66-11.52,85-3.34,7.83-9.5,12.05-17.2,12.36-8.46.34-8.65,4.74-9.8,11.35-3.9,22.26-2.57,44.66-3.42,67-11.74-5.78-3.23-17.07-7.66-26.15-12.28,6.73-21.82,17.31-32.86,25.8-19.24,14.79-39.34,27.56-64.56,28.16-40.19,1-71.28-17.87-98.23-45.74-4-4.13-4.46-12.31-12.74-11.87-2.9-12-6.16-23.85-8.57-35.92-1.16-5.83-3.43-9.33-9.6-8.79-11.1,1-17.38-5.45-22.66-13.94-8-12.91-13.34-26.46-12.72-42.05.47-11.92-.29-23.9.26-35.82.6-12.77,4.07-14.68,17.27-10.91,7.44,2.75,9.52,11.41,16.79,15.41,5.56-4.72,3.31-11.07,3.58-16.58,1.35-26.88,2-53.82,7-80.36a87.52,87.52,0,0,1,7.41-22.72c7.09-14.27,18.41-22,34.41-22.46,20.65-.62,41.16.9,59.94,10.15,10.76,5.3,19.64,4.57,29.29-2a70,70,0,0,1,33.49-11.85c36.58-3.48,61.59,21.47,57.82,58.28-2.42,23.68,1.18,46.69,8.09,69.29,1,3.25,1.33,7.79,4.89,8.78,5.16,1.42,5.76-4.37,8.18-7.1C583.39,171.26,585,166.79,588.94,164.27Z"/><path class="cls-3" d="M523.4,2832.31c15.61,4.91,31.75,4.22,47.4,2.1,30.51-4.13,60.69-9.82,91.79-8.67a172.66,172.66,0,0,1,49.45,9.49c4.08,8,8,16.07,12.27,24,8.18,15.14,18.76,28.24,33.09,38.1,4.52,3.11,8.67,6.74,13.11,10,17.27,12.6,19.8,30.09,16.41,49.48-2,11.26-6,15.53-17.5,17.15a220.54,220.54,0,0,1-28.37,2c-24.49.27-49,.22-73.48,0-6.45-.07-12.89-1.28-19.34-1.93-15.88-1.61-27.59-9.46-32.75-24.59-3.15-9.22-8.51-10.29-17-9.73-13.94.93-28,.68-42,.7a67.63,67.63,0,0,1-13.41-1.17c-16.35-3.31-18.74-6.1-19.17-23C523.28,2888.27,522.19,2860.29,523.4,2832.31Z"/><path class="cls-3" d="M252.8,2856.19c7.43-2.86,14.54-5.86,20.1-12.23,7.32-8.38,17.71-10.88,28.34-11.7,25.85-2,50.55,1,73.81,14.15,15.95,9,34.22,10.13,52.35,9.91,2.11,3.58,2.23,7.52,2.29,11.55.28,16.45.82,32.88,1.06,49.33.33,21.73-5.4,28.45-27,31.75-7.39,1.13-14.8,2.29-22.25,2.83-6,.45-8.87,2.51-8.84,9,.07,14.38-8.54,22.37-20.93,28-16.76,7.56-34.54,9.62-52.46,10.44-18.92.87-37.9.94-56.85.64-20.87-.34-27.45-6.28-31.34-26.52-2-10.33-3.07-20.68-1.4-31.21,1-6.52,2.55-12.92,7.12-17.78,16.15-17.17,24.87-38.23,32.3-60C250.09,2861.5,251.57,2858.89,252.8,2856.19Z"/><path class="cls-2" d="M46.35,1587.3c7.61-7.81,12.56-18.06,22.15-24.07,22.9-14.34,47.76-23,74.87-22.25,33.46.9,39.28,12.47,49.44,38.75,3.46,8.94,3.91,18.62,3.34,28.1-1,17.42,3.1,33.6,10,49.37a207.3,207.3,0,0,1,8.92,23.81c5.06,16.91-6.13,28.41-23.52,24.75-7.64-1.61-13.13-6.9-19.48-10.74-15.56-15.58-13.69-37-18.13-57.1-15.47,24.25-7.24,57.52,17.65,75,9.32,5.69,19.28,10.49,25,20.69,7,12.51,6.34,18.18-6.86,23.49-10.74,4.32-14.22,10.38-12.62,21.25.86,5.85.13,11.94.12,17.91-4.3-7.93-2.37-16.57-2.32-24.84,0-7-2.26-11.29-8.7-13.7-6-2.27-12-4.91-18-7.14-10.27-3.79-20.55-7.53-30.92-11-18.42-6.23-31.47-18.81-41-35.18-8.25-14.2-15.81-28.79-23.49-43.32-6.78-12.82-4.87-27.18-6.37-40.86C45.31,1609.34,46.32,1598.27,46.35,1587.3Z"/><path class="cls-2" d="M787,1740c-5.69,1.65-11.3,3.85-17.11,4.81-6.17,1-13.71,3.14-17.48-3.87s-2.88-14.4,2.13-20.94c6.64-8.67,13.75-16.85,22.28-23.79,4.51-3.67,10-6.76,11-13.38,7.08-18.31,7.42-37.61,8.4-56.82a13.12,13.12,0,0,0-1.69-7.1c-.9-1.65-.81-1.71-3.37-.38-5.51,8.64,0,19.89-6.77,28.21-.55,18.86-12.63,30.93-25.63,42-7,5.92-17,6.11-22.27,1.63-6.51-5.57-7.88-13.45-4.54-20.5,14.14-29.87,13.41-62,15.31-93.73.54-9,2.66-17.61,5.23-26.29,3.35-11.31,10.6-16.23,21.71-17,42.77-3,81.21,6.62,111.94,38.57,2.05,2.14,4,4.34,6.05,6.51,7,20.29,9.67,40.56-.34,60.75a5.38,5.38,0,0,0-.61,1.37c-8.16,46.34-44,67.42-80.53,87.51C802.93,1731.88,794.75,1735.54,787,1740Z"/><path class="cls-4" d="M412.5,797.47A108.09,108.09,0,0,1,402,769.58c-6.93-30.16-16.87-59.47-25.67-89.11C358,618.65,345.6,555.62,337,491.75c-2.55-18.91-3.92-37.7-2.32-56.7.41-4.78-.44-8.09-6.41-6.21,7.11-14.79,9.82-31.27,17.75-45.74a5.2,5.2,0,0,1,6.55,2c23.94,32.81,59.31,52.44,89.62,77.89,4.37,3.67,10.83,6,9.09,13.77-14.45,5.23-30.25,8-39.95,21.9-13.42,11.81-29.54,21.18-35.95,39.5,11.61-4.7,18-15.75,28.29-22,5.92-3.6,11.19-9,18.85-4,6.58,5.72,10,13.59,14.51,20.74,5,7.9,5.16,15.87.9,24.11-10.12,19.58-12,40.61-12.7,62.33-1.61,51.77-3.44,103.52-3,155.34C422.24,783.14,423.4,793.16,412.5,797.47Z"/><path class="cls-4" d="M592.07,412.92c-2.45.36-5.25.52-6,3.44a25.4,25.4,0,0,0-.5,7.39c2.3,36.18-3.9,71.57-9.94,107C563.35,603,545,673.89,527.86,745.08c-3.25,13.52-5,27.47-10.93,40.28-8.21-1.89-7.18-9-7-14.39.79-33.47-2.63-66.8-3.15-100.2-.63-39.68-3.8-78.75-19.39-115.83,1.58-23.59,24.5-47.74,45.58-48.08,9.08,4.08,15.56,11.45,22.56,18.17a127.79,127.79,0,0,0-18.82-16.81c-8.65-4.54-16-11.07-24.61-15.73-11-10.42-25.67-11.48-39.32-15.07-3.45-5.13,1.29-7.08,4-9.38,24.81-21.18,49.82-42.05,70.7-67.45,6.29-7.64,10.91-16.45,17.86-23.5,4.66,5,8.08,10.89,11.37,16.87C580.62,401.18,585,408.15,592.07,412.92Z"/><path class="cls-5" d="M588.94,164.27c-1.85,11.22-9.76,18.92-15.83,29.33A65.17,65.17,0,0,1,561.9,170c-5.89-22.3-9.34-44.82-6.85-68,1-9-.76-18-3.25-26.59-4.63-16-24.75-27.67-44-27-14.44.47-27.47,4.44-39,13.07-10.09,7.53-19.42,8.48-31.37,1.91-19.23-10.56-41.06-11.93-62.62-10.58-12.2.76-21.18,7.89-26.52,19.2-7.16,15.14-10,31.32-11,47.78-1.28,19.89-3,39.75-3,59.73,0,6.66,2.36,16.86-4.56,19.11-8.47,2.75-10.22-8.88-15.42-13.66-2.39-2.19-3.22-6.06-4.76-9.18.5-25-1.67-49.93.29-74.9.88-11.22,3.68-21.82,9.63-31.18,19.6-30.85,44.16-55,82-62.47,30.58-6,60.91-11.58,91.76-2.25a158.1,158.1,0,0,1,69.42,42.57c16.14,16.8,22.57,37.26,23.7,59.87C587.31,126.35,588.08,145.31,588.94,164.27Z"/><path class="cls-2" d="M565.27,377.09c.93,7.32-3.62,12.67-7.83,17.18-15.26,16.37-28.39,34.63-46.5,48.52C497.58,453,487.18,467,472.28,475.61c-7,6.18-14,6.12-21.1.12-8.26-10.93-21.14-16.1-31.18-25-16.28-14.43-34.17-27-51.1-40.75-6.55-5.3-12.68-11.25-16.29-19.15-1.49-3.24-3.21-6.18-6.6-7.74q.27-21,.55-41.94C362,348.89,371,364,384.82,373.76c19.17,13.65,38.33,27.28,59,38.54,23.08,12.6,45.54,13,66.73-5.42,14.29-12.44,30.66-22.49,42.64-37.59,2.13-2.68,4.56-5.52,8.77-4.24Q563.6,371.08,565.27,377.09Z"/><path class="cls-6" d="M561.92,365.05c-13.84,17.8-32.06,30.73-49.11,45.07-22,18.52-45.5,19.69-69.2,6.33-30.7-17.3-60.76-35.95-85.44-61.79-4.09-4.29-7.75-9-11.61-13.5l-1-18,1.22-7.64c5.05,5.72,9.91,10.2,13.54,15.53,8.39,12.33,19.8,20.86,32.74,27.62,7.51,3.92,15.15,7.6,22.78,11.31,23.06,11.19,46.32,9.32,69.43.43,19.4-7.46,34.41-21.67,50.13-34.55,6.92-5.67,13.93-11.18,21.45-17.08,4.07,3.64,1.65,8.37,2.22,12.39,1.05,7.24-2.1,15,2.54,21.8Z"/><path class="cls-7" d="M478.55,1740.09a18.93,18.93,0,0,1-.32-4.41c.38-2.44,1.22-6.19,3.64-5.75,3.83.71,2.15,4.48,1.78,7.2Z"/><path class="cls-8" d="M451.18,475.73l21.1-.11c15.94-.26,30.9,2.2,42.06,15.16,4.67,6.5.26,11.25-3.17,16.12-6.62,9.39-12.92,19-18.79,28.89-2.94,5-5.33,9.58-2.8,15.33,12.06,22.76,16.29,47.31,19.08,72.72,2.14,19.39.94,38.73,2.63,58,2.79,31.75,2.76,63.52,3.05,95.31,0,3,.12,6,2.59,8.23-5.1,27.88-15.3,54.34-23.14,81.43-7.72,26.69-14.62,53.58-22.07,80.33-3.33,1.94-4-1.12-5.4-2.86-11.93-25.25-20.58-51.72-29.19-78.2-7.51-23.12-15-46.23-24.63-68.59,4.84-6.3,5.21-13.71,5.26-21.22.11-20,.73-39.93.27-59.88-.88-38.4,3.33-76.64,3.32-115,0-15.94,3.91-31.72,12.62-45.54,4.95-7.84,4.73-14.32-1.06-21.65-5.51-7-8.29-15.91-15-22.16-5.77-3.33-11.22-6.85-9.12-15C418.77,481.63,433.62,476,451.18,475.73Z"/><path class="cls-9" d="M161.52,1380.66c-1.53-11.47-3.19-22.92-4.58-34.4-7.21-59.58-6.24-119.45-6-179.29.09-22.92,4.55-45.44,7-68.14,1.66-15.29,4.81-30.43,4.89-45.86.15-31-.57-62,.22-93,.77-30.49-3.5-60.68-3.66-91.15-.17-32.11-10-62.55-23.1-91.95C125.18,751.8,116,726,112.07,698.65a43.74,43.74,0,0,1,0-6.08c4,.23,3.47,3.35,3.92,5.1,9,34.36,23.91,66.53,36,99.75,13.92,38.24,26.4,76.94,32.66,117.64,4.79,31.11,8.06,62,8.76,93.43.34,15.32,2.6,30.67,2.63,46.15.08,30.53-5.29,60.27-11.29,90-5.1,25.28-9,50.81-13.27,76.25-8.15,48.7-4.39,97.56-5.57,146.35-.08,3.49-.14,7-.39,10.48a8.27,8.27,0,0,1-1.27,2.63Z"/><path class="cls-9" d="M777.15,1254c-5.76-6.3-4.78-14.28-6.27-21.39-5.91-28.24-13.66-56-21.06-83.85a225.63,225.63,0,0,1-7.66-58.92c.07-20-.86-40,.27-59.94,1.17-20.77,2.5-41.56,5-62.29,1.84-15.23,1.71-30.7,3.38-46.06,1.4-12.84,3.69-25.51,5.2-38.3,1.8-15.26,3.05-30.52,6.05-45.69,4.65-23.53,11.85-46.23,19.16-69,5-15.53,9.87-31.1,15-47.35,5,5,1.19,8.67.6,12.5-3.05,19.75-8.57,38.82-15.28,57.6-2.19,6.1-3.91,12.29-3.42,19,2.06,28.45-1.52,56.85-3.71,85-3.68,47.43-1.39,94.74-2.13,142.08-.76,48,.06,95.94-.25,143.9a375.3,375.3,0,0,0,5.85,68.19C778.16,1250.86,777.46,1252.36,777.15,1254Z"/><path class="cls-9" d="M476.81,1560c6.75,6.72,13.48,12.64,19.29,19.37,17.53,20.27,39.9,30.62,66.06,34.32,23.65,3.35,47.23,6.47,71.23,6.09,28-.44,55.91-.1,84,.8-7.88,2.71-15.64,5.22-24.17,5.17-31.49-.17-63,.86-94.46-.38a231.38,231.38,0,0,1-65.75-12c-7.07-2.42-13.34-2.62-20.2.18-30.09,12.25-61.48,19.79-93.45,25.12-20.79,3.47-41.56,2.73-62.45.31-12.81-1.49-25.55-3.51-38.44-4.65-22.73-2-45.67-2-68.2-6.14-1.3-.24-2.42-1.47-4.37-2.71,2.51-3.9,6.2-2.7,9.17-2.71q53.24-.15,106.48-.1c17.47,0,34.63-2.73,51.68-6.17,12.9-2.61,24.57-8.71,35.51-15.54,9.39-5.85,14.48-16.12,20.06-25.56C471.34,1571.1,471.2,1565.65,476.81,1560Z"/><path class="cls-10" d="M388,857.33c9.21,7.82,14.89,18.45,21.29,28.26,14.64,22.43,28,45.72,42.25,68.4,3.66,5.81,8.86,10.66,14,16.68,12.44-11.09,21.35-24.57,29.18-38.76,19.68-35.68,40.67-70.64,58.4-107.38.61-1.26,2-2.15,3-3.21h0c.36,6.72-2.27,12.8-5,18.57-14,29.74-26.23,60.23-41.3,89.49-10.17,19.75-25.11,35.69-38.52,52.87-4.56,5.85-9,5.46-13.42-.6-12.28-16.86-24.11-33.76-32.15-53.48-6.5-16-17-30.31-25.73-45.33-4.76-8.15-10-16.05-12-25.51Z"/><path class="cls-11" d="M171.61,1712.89c-13.09.87-22-6.81-24.28-17.78-3.55-17.19-7.87-34.9-2.52-52.79,1.68-5.65,5.26-9.16,11.83-12.82,3.54,23.06,6,45.2,15.45,65.52Z"/><path class="cls-12" d="M774.26,1268c-4.53,4.93-9.23,3.37-13.36,3.41-21,.18-42-.06-62.94.15-11.91.12-23.9-1.32-35.66,2.49-3.63,1.17-7.93.34-11.93.29-3.13,0-6.5-.66-6.35-4.54s3.63-4.24,6.7-4.24q59.94.11,119.87.34C771.43,1265.94,772.26,1266.86,774.26,1268Z"/><path class="cls-13" d="M789.36,1617.18c.67-1.77,1.24-5.16,2.77-4.58,4,1.54,9.82,3.76,9.08,8.55-3,19-1,38.76-8,57.22-1,2.7-3,3.79-5.42,4.48l-.93-36.09C784.54,1636.63,785.1,1626.75,789.36,1617.18Z"/><path class="cls-14" d="M660.82,556.85c-7.08,59-16,86.06-35.08,112.46C637.61,631.26,649.22,594.05,660.82,556.85Z"/><path class="cls-15" d="M301,692.26c-12.23-17.71-20.67-37.32-27.36-57.57-5.71-17.3-9.94-35.1-15.55-55.31,7.76,5.46,7.92,12.22,9.88,17.38,11.12,29.22,21.58,58.7,32.13,88.13.82,2.27.63,4.9.91,7.36Z"/><path class="cls-10" d="M177,1281.25c11.43-4.85,98.5-4.86,112-.41-13.54,5-25.77,2-37.61,2.55-12.47.56-25,.37-37.47.07C201.63,1283.17,189.2,1284.84,177,1281.25Z"/><path class="cls-16" d="M294.63,523.58c-9.84,5.75-18.35,2.82-26.42,3.42-1.84.14-4.13-.26-4.59-2.7A4.3,4.3,0,0,1,267.5,519C276.16,517.93,285.06,516.22,294.63,523.58Z"/><path class="cls-17" d="M621.82,506.32c11.15,0,19.28-.07,27.42.05,1.91,0,4.07.49,4.29,3,.26,3-1.9,4.7-4.26,5.06C640.48,515.78,631.7,516.43,621.82,506.32Z"/><path class="cls-18" d="M789.36,1617.18l-2.46,29.58h-2.5c-.09-6.73-.2-13.45-.24-20.17C784.13,1622.52,785.15,1619,789.36,1617.18Z"/><path class="cls-19" d="M466.32,944.25l5.41,2.86c.23,1.85.23,4.47-2,4C466.61,950.39,466.06,947.25,466.32,944.25Z"/><path class="cls-20" d="M342.39,564.14l-.93,1a14.11,14.11,0,0,1-.94-2.25c0-.22.57-.6.88-.91Z"/><path class="cls-10" d="M388,857.32c-2.45-1.28-2.94-3.54-3-6l0,0c2.42,1.28,2.95,3.52,3,6Z"/><path class="cls-10" d="M562.07,806.29,561,810.18c-2.75-2.19,0-2.8,1.12-3.86Z"/><path class="cls-10" d="M562.11,806.32c.36-1.29.71-2.59,1.07-3.89,2.76,2.19,0,2.8-1.11,3.86Z"/><path class="cls-15" d="M304,698.27c1.3.65,2.82,2.67,2.17,2.94-3.41,1.36-1.36-1.94-2.15-3Z"/><path class="cls-15" d="M304,698.25c-2.44-1.28-3-3.52-3-6h0c2.44,1.29,2.93,3.54,3,6Z"/><path class="cls-10" d="M556.09,821.32c.37-1.31.74-2.61,1.1-3.91,2.76,2.19.09,2.83-1.11,3.9Z"/><path class="cls-10" d="M385,851.31c-.42-.22-1.22-.53-1.2-.66.22-1,.68-.75,1.17.69Z"/><path class="cls-21" d="M408.8,497l9.12,15c-17.24,7.52-28.81,21.77-41.3,34.93-8.62-9.83-8.93-12.25-1.13-20.66C385.58,515.39,395.89,504.7,408.8,497Z"/><path class="cls-22" d="M489.58,551.12c-4.56-4.73-5.62-8.86-1.47-15.33,7.12-11.1,13.56-22.66,21.91-32.91a18.65,18.65,0,0,0,4.32-12.09c9.51,2.68,15.88,10.16,23.67,15.48.61,2.66-.09,4-3.06,3-8.6-1.05-15.53,2.22-21.55,8.12C503.4,527.21,493.6,537.11,489.58,551.12Z"/><path class="cls-23" d="M535,509.29l3.06-3c10.52,7.32,18.6,16.92,27.13,26.1l-2.2,2.25Z"/></g></g></svg>